<?xml version="1.0" encoding="utf-8"?>
<!-- Generator: Adobe Illustrator 16.0.0, SVG Export Plug-In . SVG Version: 6.00 Build 0)  -->
<!DOCTYPE svg PUBLIC "-//W3C//DTD SVG 1.1//EN" "http://www.w3.org/Graphics/SVG/1.1/DTD/svg11.dtd">
<svg version="1.1" id="Layer_1" xmlns="http://www.w3.org/2000/svg" xmlns:xlink="http://www.w3.org/1999/xlink" x="0px" y="0px"
	 width="40px" height="40px" viewBox="0 0 40 40" enable-background="new 0 0 40 40" xml:space="preserve">
<circle fill="#CB2434" cx="20" cy="19.999" r="20"/>
<g>
	<path fill="#FFFFFF" d="M24.573,30.491c0,0.18-0.222,0.267-0.664,0.267H23.55h-1.144c-0.763,0-1.534,0-2.314,0
		c-1.382,0-2.265,0-2.646,0c-0.383,0-0.683,0-0.904,0c-0.481,0-0.723-0.087-0.723-0.268c0-0.186,0.142-0.273,0.424-0.273
		c0.443,0,0.915-0.011,1.416-0.029c0.624-0.02,0.961-0.176,1.013-0.465c0.049-0.293,0.076-0.92,0.076-1.887V13.675
		c0-0.643-0.02-1.024-0.061-1.145c-0.041-0.12-0.183-0.182-0.427-0.182c-0.101,0-0.761,0.051-1.979,0.152
		c-0.246,0.02-0.406,0.029-0.486,0.029c-0.246,0-0.366-0.071-0.366-0.21c0-0.162,0.119-0.251,0.358-0.272
		c0.941-0.102,1.894-0.387,2.855-0.86c0.961-0.472,1.734-1.029,2.313-1.675c0.22-0.18,0.369-0.271,0.447-0.271
		c0.163,0,0.242,0.1,0.242,0.303v0.572c0,0.163,0,0.344,0,0.545V28.71c0,0.726,0.037,1.145,0.107,1.27
		c0.071,0.12,0.313,0.191,0.738,0.211h0.693H23.7h0.453C24.433,30.188,24.573,30.288,24.573,30.491z"/>
</g>
</svg>
