<?xml version="1.0" encoding="utf-8"?>
<!-- Generator: Adobe Illustrator 16.0.0, SVG Export Plug-In . SVG Version: 6.00 Build 0)  -->
<!DOCTYPE svg PUBLIC "-//W3C//DTD SVG 1.1//EN" "http://www.w3.org/Graphics/SVG/1.1/DTD/svg11.dtd">
<svg version="1.1" id="Layer_1" xmlns="http://www.w3.org/2000/svg" xmlns:xlink="http://www.w3.org/1999/xlink" x="0px" y="0px"
	 width="40px" height="40px" viewBox="0 0 40 40" enable-background="new 0 0 40 40" xml:space="preserve">
<circle fill="#CB2434" cx="20" cy="19.999" r="20"/>
<g>
	<path fill="#FFFFFF" d="M27.062,24.92c0,0.062-0.021,0.221-0.06,0.481c-0.102,0.664-0.264,2.305-0.482,4.922l-0.029,0.362
		c-2.074-0.102-4.438-0.151-7.094-0.151c-1.429,0-2.768,0.026-4.014,0.075c-1.248,0.053-1.792,0.076-1.629,0.076
		c-0.544,0-0.814-0.1-0.814-0.303c0-0.16,0.522-0.665,1.569-1.513c2.516-2.058,4.307-3.729,5.374-5.019
		c1.852-2.236,2.775-4.868,2.775-7.89c0-2.037-0.422-3.578-1.267-4.625c-0.645-0.807-1.55-1.209-2.718-1.209
		c-1.146,0-2.053,0.353-2.717,1.057c-0.522,0.542-0.785,1.086-0.785,1.63c0,0.343,0.272,0.522,0.814,0.543
		c1.408,0.061,2.114,0.674,2.114,1.842c0,1.107-0.584,1.66-1.751,1.66c-0.745,0-1.338-0.23-1.781-0.695
		c-0.441-0.463-0.664-1.098-0.664-1.901c0-1.49,0.524-2.687,1.57-3.594c1.048-0.905,2.426-1.359,4.136-1.359
		c1.712,0,3.128,0.544,4.257,1.631c1.307,1.269,1.963,2.917,1.963,4.951c0,2.232-0.746,4.292-2.236,6.173
		c-1.486,1.883-3.992,3.93-7.515,6.144c1.328-0.04,2.998-0.062,5.01-0.062c1.672,0,2.729-0.025,3.169-0.075
		c0.443-0.05,0.836-0.177,1.18-0.378c0.281-0.182,0.523-0.855,0.726-2.023c0.14-0.805,0.341-1.205,0.603-1.205
		C26.964,24.469,27.062,24.619,27.062,24.92z"/>
</g>
</svg>
