<?xml version="1.0" encoding="utf-8"?>
<!-- Generator: Adobe Illustrator 16.0.0, SVG Export Plug-In . SVG Version: 6.00 Build 0)  -->
<!DOCTYPE svg PUBLIC "-//W3C//DTD SVG 1.1//EN" "http://www.w3.org/Graphics/SVG/1.1/DTD/svg11.dtd">
<svg version="1.1" id="Layer_1" xmlns="http://www.w3.org/2000/svg" xmlns:xlink="http://www.w3.org/1999/xlink" x="0px" y="0px"
	 width="40px" height="40px" viewBox="0 0 40 40" enable-background="new 0 0 40 40" xml:space="preserve">
<circle fill="#CB2434" cx="20" cy="19.999" r="20"/>
<g>
	<path fill="#FFFFFF" d="M26.37,24.573c0,1.672-0.678,3.099-2.023,4.286c-1.49,1.311-3.393,1.964-5.706,1.964
		c-1.892,0-3.28-0.441-4.167-1.328c-0.562-0.562-0.845-1.207-0.845-1.931c0-0.625,0.195-1.124,0.588-1.496
		c0.394-0.37,0.921-0.559,1.585-0.559c0.523,0,0.956,0.152,1.299,0.457c0.341,0.303,0.513,0.688,0.513,1.152
		c0,0.709-0.474,1.267-1.419,1.672c-0.383,0.161-0.573,0.324-0.573,0.485c0,0.263,0.262,0.5,0.784,0.715
		c0.522,0.212,1.097,0.316,1.722,0.316c1.529,0,2.771-0.524,3.728-1.573c0.956-1.049,1.434-2.422,1.434-4.117
		c0-3.411-1.529-5.116-4.586-5.116c-0.303,0-0.524,0-0.664,0h-0.211c-0.263,0-0.393-0.089-0.393-0.271
		c0-0.142,0.242-0.251,0.725-0.332c1.408-0.2,2.495-0.718,3.259-1.549c0.766-0.832,1.146-1.9,1.146-3.206
		c0-1.284-0.332-2.312-0.996-3.084c-0.663-0.772-1.56-1.16-2.687-1.16c-0.826,0-1.545,0.178-2.159,0.528
		c-0.613,0.354-0.92,0.76-0.92,1.223c0,0.182,0.14,0.303,0.422,0.361c1.328,0.323,1.992,0.875,1.992,1.66
		c0,1.026-0.533,1.54-1.6,1.54c-0.685,0-1.232-0.2-1.646-0.604c-0.413-0.402-0.618-0.936-0.618-1.6c0-1.087,0.469-1.996,1.403-2.73
		c0.935-0.734,2.239-1.103,3.91-1.103c1.913,0,3.368,0.494,4.376,1.479c1.007,0.986,1.511,2.134,1.511,3.441
		c0,1.812-0.856,3.15-2.565,4.015c-0.604,0.303-1.58,0.555-2.928,0.754v0.211c1.669,0.061,3.02,0.433,4.044,1.116
		C25.614,21.203,26.37,22.662,26.37,24.573z"/>
</g>
</svg>
