<?xml version="1.0" encoding="utf-8"?>
<!-- Generator: Adobe Illustrator 16.0.0, SVG Export Plug-In . SVG Version: 6.00 Build 0)  -->
<!DOCTYPE svg PUBLIC "-//W3C//DTD SVG 1.1//EN" "http://www.w3.org/Graphics/SVG/1.1/DTD/svg11.dtd">
<svg version="1.1" id="Layer_1" xmlns="http://www.w3.org/2000/svg" xmlns:xlink="http://www.w3.org/1999/xlink" x="0px" y="0px"
	 width="40px" height="40px" viewBox="0 0 40 40" enable-background="new 0 0 40 40" xml:space="preserve">
<circle fill="#CB2434" cx="20" cy="19.999" r="20"/>
<g>
	<path fill="#FFFFFF" d="M25.999,25.979c0,0.2-0.101,0.302-0.301,0.302c-0.183,0-0.299-0.114-0.35-0.348
		c-0.049-0.23-0.126-0.86-0.227-1.887c-0.039-0.16-0.121-0.281-0.24-0.361c-0.244-0.14-0.776-0.211-1.601-0.211
		c-0.223,0-0.434,0.012-0.636,0.029v4.741c0.102,0.241,0.269,0.391,0.503,0.453c0.235,0.06,0.808,0.089,1.724,0.089
		c0.448,0,0.711,0.04,0.793,0.122c0.02,0.039,0.03,0.101,0.03,0.18c0,0.141-0.403,0.211-1.207,0.211s-3.059,0.021-6.762,0.062
		c-0.201,0.02-0.421,0.028-0.664,0.028c-0.402,0-0.604-0.096-0.604-0.286c0-0.192,0.292-0.277,0.875-0.258
		c0.686,0.021,1.308-0.02,1.872-0.121c0.242-0.04,0.393-0.145,0.454-0.316c0.06-0.175,0.089-0.552,0.089-1.14v-3.673
		c-0.403-0.021-0.865-0.03-1.389-0.03h-1.238c-0.281,0-0.593,0.012-0.934,0.03c-0.303,0-0.494,0-0.574,0l-3.833-0.091
		c-0.282-0.021-0.422-0.1-0.422-0.241c0-0.102,1.48-2.184,4.438-6.25c0.925-1.308,2.967-4.185,6.13-8.633
		c0.139-0.182,0.281-0.271,0.42-0.271c0.202,0,0.304,0.191,0.304,0.572V22.84h0.298c0.676,0,1.207-0.04,1.596-0.121
		c0.388-0.08,0.582-0.281,0.582-0.604c0-1.268,0-1.699,0-1.297c0.021-0.726,0.137-1.087,0.345-1.087c0.294,0,0.44,0.282,0.44,0.845
		v1.359v2.172c0.021,0.747,0.04,1.213,0.06,1.404C25.989,25.703,25.999,25.859,25.999,25.979z M19.932,12.518
		c-0.199,0.322-0.618,0.939-1.256,1.849c-0.885,1.229-2.223,3.062-4.013,5.496l-2.149,2.924c0.744,0.037,2.342,0.055,4.793,0.055
		c0.864,0,1.679,0,2.443,0v-2.144c0-1.006,0.029-2.363,0.09-4.074C19.901,14.61,19.932,13.242,19.932,12.518z"/>
</g>
</svg>
