<?xml version="1.0" encoding="utf-8"?>
<!-- Generator: Adobe Illustrator 16.0.0, SVG Export Plug-In . SVG Version: 6.00 Build 0)  -->
<!DOCTYPE svg PUBLIC "-//W3C//DTD SVG 1.1//EN" "http://www.w3.org/Graphics/SVG/1.1/DTD/svg11.dtd">
<svg version="1.1" id="Layer_1" xmlns="http://www.w3.org/2000/svg" xmlns:xlink="http://www.w3.org/1999/xlink" x="0px" y="0px"
	 width="215.975px" height="186.718px" viewBox="0 0 215.975 186.718" enable-background="new 0 0 215.975 186.718"
	 xml:space="preserve">
<g>
	<g>
		<g>
			<path fill="#CA2234" d="M36.647,64.522c0.061,0.383-0.497,0.686-1.669,0.912c1.274-0.253,0.591-0.199-2.051,0.167l-3.951,0.626
				l-6.862,1.086c-0.226,0.144-0.496,0.239-0.807,0.288c-0.589,0.094-0.916-0.067-0.982-0.483c-0.049-0.313,0.116-0.499,0.498-0.559
				c0.381-0.061,0.762-0.121,1.145-0.182l0.571-0.089c0.936-0.149,1.743-0.437,2.421-0.864c0.452-0.285,0.662-1.312,0.63-3.084
				l-0.072-7.181c0.019-0.11,0.014-0.251-0.014-0.424c-0.038-0.243-0.681-0.266-1.929-0.069c-1.456,0.231-2.998,0.475-4.626,0.733
				c-1.63,0.259-2.514,0.399-2.652,0.42l-0.831,0.131c-0.175,0.246-0.542,0.851-1.1,1.812l-3.757,7.574
				c-0.512,1.028-0.74,1.718-0.684,2.071c0.118,0.746,1.13,0.966,3.036,0.665c0.208-0.033,0.514-0.125,0.916-0.276
				c0.402-0.155,0.708-0.248,0.916-0.28c0.484-0.077,0.755,0.06,0.81,0.405c0.061,0.382-0.377,0.645-1.313,0.793l-2.884,0.298
				l-4.707,0.904c-2.247,0.393-3.671,0.591-4.275,0.598c-0.603,0.008-0.929-0.146-0.979-0.458c-0.043-0.277,0.108-0.444,0.454-0.498
				c0.244-0.039,0.597-0.051,1.061-0.034c0.464,0.015,0.818,0.002,1.06-0.035c1.178-0.187,2.129-0.569,2.856-1.147
				c0.504-0.401,1.428-1.864,2.768-4.395l11.886-22.19c0.714-1.323,1.805-3.295,3.273-5.917l3.634-6.667
				c0.274-0.507,0.533-0.779,0.775-0.819c0.347-0.054,0.559,0.162,0.636,0.647c0.126,0.798,0.156,1.772,0.089,2.92
				c-0.121,2.153-0.108,5.371,0.037,9.654l0.647,18.896c0.062,1.736,0.107,2.688,0.135,2.862c0.159,1.006,0.868,1.445,2.126,1.317
				l3.067-0.486C36.372,64.135,36.605,64.255,36.647,64.522z M25.402,38.278c-0.049-0.31-0.143-0.454-0.282-0.433
				c-0.208,0.034-0.364,0.28-0.469,0.739c-0.106,0.459-0.22,0.752-0.341,0.878c-0.17,0.274-0.609,1.087-1.319,2.438l-4.381,8.341
				c-0.493,0.929-1.138,2.128-1.935,3.599c-0.153,0.165-0.237,0.303-0.255,0.413c0.043,0.275,0.305,0.359,0.785,0.249l1.04-0.166
				l2.6-0.411c2.569-0.372,4.11-0.742,4.621-1.104l-0.07-10.876c-0.006-0.708,0-1.681,0.017-2.924
				C25.428,38.667,25.424,38.417,25.402,38.278z"/>
			<path fill="#CA2234" d="M75.748,22.378c0.043,0.27-0.23,0.453-0.819,0.546l-0.624,0.099c-0.208,0.033-0.521,0.082-0.936,0.147
				c-0.97,0.154-1.591,0.387-1.862,0.695c-0.27,0.309-0.509,1.051-0.714,2.22c-0.078,0.405-0.323,1.545-0.736,3.426l-2.843,12.672
				c-1.765,7.928-3.552,13.123-5.366,15.581c-2.251,3.06-5.508,4.927-9.771,5.602c-2.774,0.439-5.074,0.216-6.901-0.671
				c-1.829-0.886-2.893-2.285-3.197-4.197c-0.319-2.016,0.038-5.26,1.07-9.737l3.991-17.198c0.143-0.664,0.36-1.537,0.652-2.616
				c0.099-0.264,0.136-0.484,0.108-0.657c-0.093-0.592-0.582-0.869-1.465-0.836l-1.56,0.246c-0.347,0.055-0.534-0.009-0.562-0.19
				c-0.043-0.268,0.213-0.448,0.767-0.536l0.469-0.075l4.991-0.79l5.978-0.947c0.381-0.061,0.588,0.014,0.621,0.221
				c0.039,0.243-0.025,0.397-0.193,0.458c-0.167,0.063-0.801,0.199-1.9,0.409c-0.962,0.188-1.5,0.362-1.616,0.522
				c-0.221,0.177-0.427,0.546-0.622,1.11c-0.173,0.916-0.43,2.093-0.768,3.532l-3.819,17.125c-1.036,4.641-1.396,7.948-1.083,9.924
				c0.208,1.317,0.845,2.316,1.911,3.001c1.066,0.684,2.325,0.911,3.777,0.681c4.186-0.664,7.231-2.925,9.138-6.786
				c1.287-2.624,2.608-7.048,3.961-13.275l2.703-12.49c0.595-2.727,0.863-4.283,0.803-4.664c-0.115-0.729-0.815-0.99-2.097-0.787
				l-0.468,0.073c-0.278,0.044-0.538,0.085-0.78,0.124c-0.312,0.049-0.484-0.032-0.518-0.241c-0.038-0.241,0.22-0.406,0.775-0.493
				l0.78-0.124l7.122-1.128c0.312-0.05,0.657-0.104,1.04-0.165C75.533,22.135,75.72,22.198,75.748,22.378z"/>
			<path fill="#CA2234" d="M104.264,17.372c-0.602,3.151-1.029,5.83-1.284,8.037c-0.185,1.521-0.434,2.306-0.746,2.355
				c-0.278,0.044-0.438-0.071-0.481-0.347c-0.021-0.138,0.029-0.772,0.151-1.904c0.123-1.133,0.113-2.147-0.028-3.042
				c-0.278-1.756-1.265-2.712-2.959-2.869c-0.686-0.067-1.827,0.024-3.42,0.277c-0.971,0.153-1.866,0.331-2.687,0.533l-7.301,31.964
				c-0.168,0.737-0.323,1.381-0.466,1.938c-0.144,0.554-0.204,0.9-0.183,1.038c0.126,0.796,1.298,1.019,3.517,0.668
				c0.312-0.05,0.484,0.029,0.517,0.236c0.061,0.381-0.204,0.62-0.793,0.713c-0.174,0.028-0.627,0.08-1.36,0.16
				c-1.466,0.163-3.188,0.4-5.163,0.713c-1.283,0.203-2.648,0.444-4.095,0.727c-0.478,0.13-1.079,0.252-1.807,0.368
				c-0.381,0.061-0.586-0.002-0.616-0.189c-0.059-0.369,0.259-0.608,0.953-0.718c0.104-0.017,0.26-0.042,0.468-0.075L77,57.874
				c1.282-0.203,2.123-0.566,2.518-1.092c0.397-0.523,0.843-1.909,1.34-4.157l7.047-31.544l-2.079,0.331
				c-3.57,0.565-6.092,1.8-7.567,3.703c-0.857,1.095-1.782,3.107-2.774,6.036c-0.142,0.448-0.352,0.695-0.629,0.738
				c-0.174,0.028-0.276-0.062-0.31-0.271c-0.016-0.105,0.008-0.288,0.073-0.548l0.499-1.902c0.249-0.896,0.619-2.258,1.111-4.087
				c0.312-0.941,0.646-2.084,1.002-3.426c1.194-0.082,5.535-0.718,13.021-1.904C94.412,19.091,99.083,18.3,104.264,17.372z"/>
			<path fill="#CA2234" d="M139.016,12.359c0.043,0.27-0.23,0.451-0.82,0.545l-0.623,0.1c-0.209,0.033-0.52,0.082-0.936,0.147
				c-0.973,0.154-1.592,0.386-1.863,0.695c-0.27,0.309-0.508,1.049-0.713,2.22c-0.078,0.405-0.324,1.545-0.736,3.426l-2.844,12.672
				c-1.764,7.928-3.553,13.123-5.365,15.579c-2.252,3.061-5.508,4.927-9.77,5.604c-2.775,0.439-5.074,0.216-6.902-0.671
				c-1.828-0.886-2.893-2.285-3.195-4.197c-0.32-2.016,0.037-5.261,1.07-9.737l3.991-17.198c0.143-0.665,0.359-1.537,0.652-2.616
				c0.098-0.264,0.135-0.484,0.107-0.657c-0.094-0.592-0.582-0.871-1.465-0.838l-1.56,0.248c-0.347,0.056-0.535-0.009-0.562-0.19
				c-0.043-0.269,0.213-0.448,0.767-0.536l0.47-0.075l4.99-0.791l5.979-0.946c0.381-0.061,0.59,0.014,0.621,0.221
				c0.039,0.244-0.027,0.397-0.193,0.458c-0.166,0.062-0.801,0.199-1.9,0.407c-0.961,0.189-1.5,0.363-1.617,0.522
				c-0.219,0.178-0.426,0.547-0.619,1.111c-0.176,0.916-0.432,2.093-0.77,3.532l-3.818,17.126c-1.037,4.64-1.398,7.947-1.084,9.924
				c0.209,1.317,0.844,2.316,1.912,3.001c1.064,0.684,2.324,0.911,3.777,0.681c4.186-0.664,7.23-2.925,9.137-6.785
				c1.285-2.624,2.607-7.048,3.961-13.276l2.703-12.49c0.596-2.727,0.863-4.283,0.803-4.664c-0.115-0.729-0.814-0.99-2.096-0.789
				l-0.469,0.075c-0.277,0.044-0.537,0.085-0.779,0.124c-0.312,0.049-0.484-0.032-0.518-0.241c-0.037-0.241,0.221-0.406,0.775-0.495
				l0.779-0.124l7.123-1.128c0.311-0.049,0.656-0.104,1.039-0.164C138.799,12.114,138.988,12.177,139.016,12.359z"/>
			<path fill="#CA2234" d="M178.348,5.995c0.084,0.531-0.082,0.829-0.498,0.894c-0.143-0.003-0.375-0.006-0.695-0.01
				c-0.143-0.004-0.316,0.011-0.525,0.044s-0.381,0.061-0.52,0.082l-1.092,0.173c-0.139,0.023-0.33,0.053-0.572,0.091
				c-0.416,0.067-0.707,0.361-0.871,0.884c-0.445,1.456-0.852,3.048-1.217,4.775l-5.711,26.857
				c-0.033,0.255-0.109,0.657-0.234,1.209c0.01,0.071-0.008,0.242-0.053,0.516s-0.131,0.687-0.256,1.239
				c-0.117,0.162-0.166,0.292-0.15,0.396c0.066,0.417,0.551,0.554,1.451,0.411l0.727-0.116l1.248-0.197l1.039-0.166
				c0.109,0.015,0.174,0.091,0.195,0.22c0.068,0.428-0.162,0.662-0.688,0.711l-1.455,0.231l-11.125,1.762
				c-0.346,0.056-0.537-0.023-0.57-0.231c-0.059-0.381,0.387-0.647,1.34-0.798s1.709-0.359,2.271-0.626
				c0.26-0.147,0.494-0.593,0.695-1.336c0.52-2.32,1.041-4.641,1.562-6.962l6.113-27.346c-0.029,0.039-1.344,2.841-3.945,8.405
				L151.615,45.15c-0.516,1.006-0.877,1.525-1.086,1.559c-0.277,0.043-0.459-0.212-0.547-0.767l0.014-0.588l-0.256-1.611
				l-2.779-26.632c-0.139-1.327-0.238-2.183-0.299-2.565c-0.125-0.796-0.26-1.184-0.398-1.163c-0.059,0.082-0.115,0.268-0.176,0.563
				c-0.1,0.725-0.26,1.621-0.48,2.687l-5.91,29.98c-0.037,0.218-0.047,0.378-0.031,0.484c0.066,0.414,0.281,0.647,0.645,0.695
				c0.363,0.05,1.215-0.067,2.555-0.351l0.936-0.147c0.242-0.038,0.381,0.04,0.41,0.234c0.057,0.359-0.139,0.577-0.59,0.647
				c-0.381,0.061-0.693,0.11-0.936,0.149l-3.326,0.526c-2.469,0.354-4.287,0.643-5.459,0.865c-0.209,0.033-0.451,0.07-0.729,0.115
				c-0.346,0.054-0.537-0.025-0.57-0.242c-0.055-0.339,0.18-0.549,0.699-0.632c0.174-0.027,0.363-0.057,0.57-0.09
				c0.209-0.034,0.764-0.121,1.666-0.264c1.176-0.187,1.887-0.469,2.129-0.844s0.588-1.626,1.031-3.755l6.062-29.693
				c0.049-0.361,0.123-0.782,0.227-1.259c0.082-0.156,0.146-0.306,0.195-0.457c-0.023-0.139-0.246-0.253-0.668-0.347
				c-0.424-0.092-0.826-0.108-1.207-0.048c-0.555,0.087-1.543,0.243-2.965,0.469l-0.207,0.033c-0.244,0.039-0.393-0.123-0.451-0.487
				c-0.051-0.33,0.113-0.525,0.494-0.585c0.242-0.039,0.471-0.057,0.684-0.056c0.463-0.001,2.217-0.243,5.268-0.727
				c2.67-0.422,4.08-0.7,4.238-0.831l0.26-0.042c0.209-0.033,0.338,0.107,0.387,0.419c0.082,0.523,0.201,1.486,0.352,2.888
				l2.557,23.882c0.1-0.264,0.408-0.898,0.922-1.905l0.977-1.914l11.986-25.931l3.9-0.617l5.953-1.104
				C178.076,5.629,178.305,5.729,178.348,5.995z"/>
			<path fill="#CA2234" d="M214.533,0.292c0.055,0.338-0.424,0.571-1.436,0.695l-2.34,0.371c-0.762,0.121-1.24,0.465-1.434,1.033
				l-0.227,1.266l-0.463,2.112l-5.992,29.466c-0.119,0.377-0.289,0.993-0.508,1.848l-0.18,0.887
				c-0.184,0.853-0.363,1.291-0.537,1.318c-0.311,0.049-0.643-0.359-0.994-1.228L186.967,6.246l-5.738,30.059
				c-0.506,2.638-0.732,4.112-0.686,4.425c0.066,0.416,0.672,0.534,1.816,0.352l0.623-0.099c0.277-0.044,0.553-0.088,0.83-0.132
				l0.416-0.065c1.18-0.187,1.795-0.116,1.848,0.213c0.051,0.331-0.184,0.535-0.703,0.617c-0.242,0.038-0.73,0.099-1.463,0.181
				c-1.467,0.16-2.928,0.355-4.383,0.586c-0.176,0.028-0.725,0.142-1.652,0.342c-0.928,0.2-1.771,0.36-2.533,0.481l-1.197,0.189
				c-0.588,0.093-0.904,0.002-0.949-0.275s0.342-0.534,1.156-0.77l0.676-0.107c0.176-0.026,0.793-0.161,1.855-0.401
				c1.062-0.238,1.738-0.686,2.027-1.34c0.086-0.334,0.219-0.855,0.391-1.563l0.574-2.771l5.699-29.962
				c0.047-0.15,0.094-0.3,0.141-0.451c-0.043-0.28-0.553-0.343-1.521-0.189c-1.664,0.264-2.668,0.422-3.014,0.478l-0.834,0.131
				c-0.693,0.109-1.064,0.007-1.115-0.308c-0.053-0.343,0.232-0.564,0.855-0.664c0.174-0.026,0.574-0.072,1.205-0.136
				c1.258-0.127,3.17-0.396,5.734-0.802c1.975-0.313,3.301-0.575,3.979-0.79l11.588,26.728l4.742-24.229
				c0.412-2.102,0.592-3.327,0.535-3.676c-0.049-0.313-0.314-0.432-0.803-0.356c0.105-0.017-0.447,0.072-1.662,0.264l-1.818,0.289
				c-0.723,0.15-1.105,0.09-1.148-0.183c-0.051-0.318,0.287-0.534,1.016-0.648l6.291-0.997c0.172-0.028,0.502-0.08,0.986-0.156
				c0.52-0.082,1.006-0.159,1.455-0.231l1.613-0.255C214.248-0.048,214.494,0.042,214.533,0.292z"/>
		</g>
	</g>
	<g>
		<g>
			<path fill="#CA2234" d="M57.465,80.555c0.05,0.319-0.555,0.619-1.815,0.902c-1.46,0.313-2.45,0.695-2.969,1.144
				c-0.519,0.451-1.181,1.495-1.981,3.136c-0.309,0.622-0.786,1.598-1.432,2.927L31.022,124.5c-0.969,1.872-1.631,2.835-1.989,2.892
				c-0.24,0.038-0.383-0.103-0.434-0.42c-0.056-0.358-0.104-0.656-0.142-0.896l-0.132-0.836L25.8,105.819L14.162,127.36
				c-1.009,1.874-1.691,2.839-2.049,2.896c-0.24,0.038-0.384-0.103-0.434-0.421l-0.303-1.91l-4.648-37.07
				c-0.113-0.716-0.562-1.095-1.341-1.134c-0.212-0.049-0.898-0.001-2.058,0.141C2.407,89.97,1.928,89.9,1.89,89.663
				c-0.062-0.399,0.205-0.645,0.801-0.739l0.597-0.095c0.12-0.019,1.019-0.135,2.697-0.346c1.482-0.167,2.897-0.376,4.245-0.631
				l6.147-0.974c0.305-0.13,0.657-0.227,1.056-0.29c0.318-0.051,0.492,0.024,0.523,0.222c0.044,0.28-0.078,0.473-0.367,0.578
				c-0.289,0.108-1.157,0.359-2.604,0.75c-1.878,0.501-2.781,1.114-2.708,1.836l0.307,2.704l3.318,28.289l9.368-17.327
				l-2.184-14.949c-0.126-0.797-0.398-1.292-0.817-1.492c-0.419-0.198-1.186-0.21-2.3-0.034l-0.656,0.105
				c-0.398,0.063-0.616-0.025-0.654-0.263c-0.062-0.398,0.224-0.648,0.86-0.749l0.358-0.057c0.636-0.101,1.645-0.24,3.024-0.418
				c1.378-0.178,2.128-0.276,2.248-0.295l12.234-1.938c0.756-0.119,2.062-0.366,3.919-0.743l0.657-0.105
				c0.597-0.094,0.917-0.001,0.961,0.276c0.05,0.319-0.398,0.574-1.348,0.765c-1.891,0.422-3.182,0.902-3.871,1.439
				c-0.69,0.537-1.452,1.647-2.288,3.329L30.238,98.69l2.525,19.424l15.042-29.79c1.554-3.061,2.31-4.731,2.266-5.008
				c-0.095-0.597-0.619-0.82-1.574-0.668c0.039-0.006-0.089,0.014-0.388,0.061c-0.299,0.048-0.766,0.122-1.402,0.222l-0.239,0.038
				c-0.716,0.114-1.097,0.02-1.145-0.28c-0.06-0.375,0.291-0.603,1.054-0.684l1.074-0.17l4.895-0.774l4.315-0.561
				c0.065-0.092,0.179-0.151,0.339-0.177C57.278,80.277,57.433,80.356,57.465,80.555z M35.202,85.616
				c-0.088-0.562-1.119-0.687-3.091-0.374c-2.604,0.413-3.816,1.178-3.639,2.298l0.086,0.54c0.038,0.241,0.076,0.48,0.114,0.722
				l0.133,0.84l0.923,6.989l4.405-8.879c0.154-0.312,0.42-0.826,0.796-1.542C35.131,85.934,35.221,85.735,35.202,85.616z"/>
			<path fill="#CA2234" d="M75.076,77.797c0.053,0.338-0.16,0.542-0.637,0.618C74.2,78.454,74,78.485,73.842,78.51l-0.955,0.151
				c-1.711,0.271-2.715,0.757-3.012,1.457c-0.452,1.01-1.022,3.078-1.709,6.205l-7.128,32.635c-0.042,0.251-0.097,0.545-0.166,0.883
				c0.114,0.716,0.981,1.048,2.605,0.994c0.517-0.082,1.137-0.159,1.859-0.235c0.523-0.04,0.804,0.059,0.842,0.297
				c0.044,0.278-0.213,0.462-0.77,0.55c-2.871,0.415-6.992,1.047-12.363,1.897c-1.87,0.297-2.958,0.446-3.262,0.454
				c-0.304,0.01-0.473-0.086-0.504-0.285c-0.044-0.277,0.471-0.503,1.545-0.674c1.466-0.272,2.424-0.525,2.876-0.761
				c0.712-0.397,1.201-0.922,1.464-1.575c0.219-0.93,0.474-2.03,0.762-3.296l7.013-31.044c0.694-3.083,1.02-4.765,0.976-5.042
				c-0.107-0.676-0.779-0.916-2.011-0.72l-2.387,0.377c-0.438,0.071-0.683-0.064-0.736-0.404c-0.047-0.296,0.146-0.479,0.585-0.55
				l0.538-0.084c0.238-0.038,1.193-0.189,2.865-0.454l8.892-1.408c0.239-0.038,0.437-0.07,0.597-0.095l2.208-0.35
				C74.825,77.377,75.028,77.497,75.076,77.797z"/>
			<path fill="#CA2234" d="M116.549,71.208c0.062,0.39-0.488,0.657-1.646,0.799l-2.688,0.425c-0.873,0.139-1.424,0.534-1.646,1.185
				l-0.258,1.457l-0.535,2.422l-6.877,33.828c-0.136,0.433-0.33,1.141-0.582,2.122l-0.206,1.017
				c-0.212,0.978-0.419,1.481-0.617,1.514c-0.358,0.057-0.738-0.411-1.141-1.409L84.902,78.043l-6.587,34.508
				c-0.582,3.028-0.843,4.722-0.786,5.08c0.076,0.477,0.77,0.611,2.083,0.403l0.716-0.113c0.318-0.051,0.636-0.102,0.955-0.151
				l0.478-0.076c1.352-0.213,2.059-0.13,2.119,0.247c0.061,0.379-0.209,0.613-0.806,0.708c-0.278,0.044-0.839,0.111-1.68,0.206
				c-1.684,0.185-3.361,0.408-5.033,0.673c-0.199,0.032-0.83,0.163-1.895,0.393s-2.035,0.414-2.91,0.553l-1.373,0.218
				c-0.676,0.106-1.04,0.003-1.09-0.316s0.393-0.613,1.329-0.884l0.775-0.123c0.2-0.031,0.908-0.184,2.13-0.46
				c1.22-0.276,1.995-0.789,2.325-1.538c0.102-0.386,0.252-0.983,0.45-1.796l0.659-3.181l6.543-34.397
				c0.053-0.173,0.108-0.344,0.163-0.518c-0.051-0.319-0.634-0.393-1.748-0.216c-1.909,0.303-3.063,0.485-3.461,0.549l-0.955,0.151
				c-0.796,0.126-1.222,0.007-1.279-0.354c-0.062-0.394,0.264-0.648,0.98-0.762c0.2-0.032,0.66-0.083,1.383-0.158
				c1.444-0.145,3.638-0.453,6.583-0.92c2.267-0.359,3.79-0.662,4.567-0.908l13.302,30.685l5.444-27.814
				c0.475-2.413,0.68-3.819,0.616-4.221c-0.057-0.361-0.364-0.497-0.921-0.409c0.119-0.019-0.517,0.082-1.91,0.303l-2.089,0.331
				c-0.829,0.174-1.268,0.104-1.318-0.209c-0.058-0.363,0.332-0.612,1.167-0.744l7.222-1.143c0.197-0.032,0.576-0.092,1.135-0.18
				c0.596-0.095,1.152-0.183,1.67-0.264l1.85-0.294C116.221,70.82,116.504,70.922,116.549,71.208z"/>
			<path fill="#CA2234" d="M149.842,65.497c-0.691,3.617-1.184,6.692-1.475,9.226c-0.213,1.746-0.498,2.647-0.857,2.706
				c-0.318,0.051-0.502-0.083-0.553-0.398c-0.025-0.159,0.031-0.888,0.174-2.186c0.141-1.301,0.131-2.465-0.033-3.493
				c-0.318-2.017-1.451-3.113-3.396-3.294c-0.787-0.078-2.096,0.029-3.926,0.318c-1.115,0.177-2.143,0.381-3.084,0.612
				l-8.383,36.696c-0.193,0.845-0.371,1.585-0.535,2.224c-0.164,0.637-0.232,1.036-0.209,1.193c0.145,0.913,1.492,1.17,4.037,0.766
				c0.357-0.057,0.557,0.035,0.594,0.272c0.07,0.438-0.232,0.709-0.908,0.816c-0.199,0.031-0.721,0.092-1.562,0.186
				c-1.684,0.186-3.66,0.458-5.928,0.817c-1.473,0.232-3.039,0.511-4.701,0.836c-0.549,0.146-1.238,0.288-2.074,0.421
				c-0.438,0.069-0.674-0.003-0.707-0.215c-0.068-0.425,0.297-0.7,1.094-0.826c0.119-0.02,0.299-0.047,0.537-0.085l0.596-0.095
				c1.473-0.233,2.436-0.65,2.893-1.252c0.455-0.604,0.967-2.194,1.537-4.771l8.092-36.214l-2.387,0.378
				c-4.1,0.648-6.994,2.067-8.689,4.25c-0.982,1.257-2.045,3.567-3.184,6.93c-0.162,0.515-0.404,0.797-0.723,0.848
				c-0.199,0.031-0.318-0.072-0.355-0.314c-0.018-0.119,0.01-0.328,0.084-0.628l0.572-2.181c0.285-1.029,0.711-2.594,1.275-4.693
				c0.359-1.083,0.742-2.393,1.152-3.933c1.371-0.096,6.354-0.823,14.947-2.184C138.531,67.471,143.893,66.56,149.842,65.497z"/>
			<path fill="#CA2234" d="M180.723,61.161c0.006,0.042-0.02,0.147-0.072,0.32c-0.146,0.354-0.277,0.953-0.389,1.795
				c-0.301,2.48-0.527,4.587-0.682,6.323c-0.152,1.734-0.389,2.626-0.705,2.677c-0.24,0.038-0.385-0.102-0.434-0.42l-0.008-0.426
				c0.314-1.356,0.332-2.931,0.047-4.719c-0.307-1.95-1.129-3.073-2.459-3.374c-1.332-0.297-3.494-0.23-6.484,0.201l-4,0.633
				c-0.676,0.107-1.111,0.582-1.303,1.424l-1.184,5.656l-2.674,12.09c1.457-0.066,2.404-0.136,2.842-0.206
				c2.029-0.322,3.717-1.118,5.066-2.393c1.348-1.272,2.178-2.853,2.49-4.738c0.105-0.628,0.297-0.964,0.576-1.008
				c0.357-0.057,0.562,0.076,0.613,0.392c0.012,0.081-0.033,0.312-0.137,0.695c-1.498,5.213-2.682,10.479-3.553,15.796
				c-0.033,0.577-0.188,0.886-0.465,0.93c-0.279,0.045-0.441-0.074-0.484-0.354c-0.025-0.16-0.021-0.387,0.014-0.68
				c0.262-2.216,0.314-3.805,0.164-4.767c-0.203-1.28-0.785-2.112-1.742-2.494c-0.957-0.383-2.551-0.397-4.777-0.044
				c-0.637,0.101-1.053,0.575-1.244,1.424l-3.924,16.943c-0.287,1.273-0.416,2.01-0.383,2.209c0.055,0.358,0.447,0.501,1.168,0.428
				l3.123-0.372c1.039-0.124,2.117-0.273,3.232-0.45c5.768-0.915,9.527-2.795,11.279-5.643c0.912-1.448,1.617-3.701,2.113-6.757
				c0.15-0.839,0.426-1.29,0.824-1.354c0.277-0.044,0.439,0.073,0.484,0.354c0.025,0.159-0.08,0.791-0.312,1.894
				c-0.887,4.199-1.508,7.475-1.869,9.83c-0.094,0.437-0.23,0.728-0.412,0.87c-0.184,0.143-0.631,0.274-1.348,0.388l-20.23,3.204
				c-4.934,0.78-7.812,1.215-8.633,1.305c-0.82,0.092-1.256-0.004-1.299-0.282c-0.039-0.239,0.119-0.405,0.471-0.502
				c0.352-0.095,1.504-0.299,3.451-0.607c0.756-0.12,1.252-0.341,1.486-0.662c0.234-0.322,0.523-1.204,0.867-2.644l7.449-30.991
				c0.238-0.811,0.57-2.127,0.994-3.944c0.428-1.819,0.609-2.927,0.547-3.324c-0.051-0.316-0.271-0.477-0.656-0.476
				c-0.389-0.001-1.699,0.158-3.934,0.469c-0.477,0.076-0.736-0.014-0.777-0.268c-0.066-0.422,0.277-0.694,1.035-0.813
				c0.078-0.013,0.654-0.104,1.73-0.274c1.08-0.13,2.395-0.318,3.947-0.563l17.805-2.699c0.715-0.113,1.143-0.242,1.283-0.386
				l0.359-0.057C180.289,60.612,180.658,60.76,180.723,61.161z"/>
			<path fill="#CA2234" d="M213.988,63.779c0.328,2.069-0.113,4.107-1.324,6.113c-1.211,2.008-3.035,3.692-5.473,5.058
				c-1.908,1.076-4.879,2.017-8.912,2.818l1.994,0.235c2.66,0.314,4.475,0.955,5.445,1.922c0.967,0.968,1.672,2.845,2.113,5.63
				c0.102,0.636,0.172,1.217,0.207,1.741l0.363,5.327c0.158,1.525,0.299,2.665,0.418,3.418c0.24,1.513,0.836,2.193,1.791,2.043
				c0.32-0.051,0.6-0.217,0.84-0.501c0.066-0.092,0.064-0.355-0.002-0.795c-0.072-0.438,0.023-0.86,0.287-1.269
				c0.262-0.409,0.609-0.647,1.049-0.717c0.555-0.088,0.881,0.167,0.977,0.764c0.127,0.796-0.203,1.553-0.986,2.267
				c-0.785,0.715-1.793,1.171-3.025,1.366c-3.98,0.629-6.289-1.085-6.934-5.144c-0.162-1.033-0.273-2.24-0.326-3.617l-0.193-4.681
				c-0.055-1.376-0.15-2.504-0.289-3.379c-0.316-1.989-1.379-3.167-3.191-3.534c-0.627-0.103-2.209-0.036-4.738,0.2l-4.482,19.987
				c-0.076,0.297-0.107,0.484-0.094,0.562c0.094,0.596,0.85,0.862,2.268,0.8c0.607-0.015,0.973-0.032,1.092-0.052l1.373-0.217
				c0.24-0.038,0.375,0.043,0.406,0.242c0.062,0.397-0.344,0.667-1.219,0.806c-1.393,0.221-3.746,0.554-7.062,0.995
				c-1.676,0.228-2.596,0.351-2.754,0.376c-0.477,0.076-1.189,0.22-2.133,0.429c-0.947,0.211-1.656,0.354-2.135,0.431
				c-0.516,0.082-0.801-0.034-0.852-0.354c-0.039-0.239,0.496-0.467,1.604-0.684c1.547-0.285,2.568-0.651,3.068-1.098
				c0.441-0.313,0.9-1.529,1.381-3.645l7.859-35.748c0.107-0.343,0.145-0.636,0.105-0.875c-0.119-0.755-1.393-0.942-3.82-0.558
				c-0.41-0.015-0.631-0.124-0.662-0.323c-0.045-0.277,0.109-0.465,0.461-0.562c0.354-0.097,1.543-0.307,3.572-0.628
				c1.213-0.069,2.135-0.155,2.771-0.256l2.926-0.463c4.111-0.568,6.529-0.871,7.26-0.904c1.166-0.103,2.326,0.02,3.482,0.366
				C211.66,58.602,213.49,60.635,213.988,63.779z M208.324,64.712c-0.547-3.45-1.93-5.466-4.15-6.047
				c-0.77-0.204-2.232-0.136-4.389,0.206c-0.641,0.101-1.061,0.413-1.266,0.931c-0.291,0.738-0.512,1.423-0.658,2.056l-3.486,15.979
				c0.486-0.038,1.047-0.106,1.688-0.207c4.072-0.646,7.26-2.175,9.559-4.593C207.918,70.621,208.82,67.846,208.324,64.712z"/>
		</g>
	</g>
	<g>
		<g>
			<path fill="#CA2234" d="M24.483,154.961c0.434,2.74-0.415,5.612-2.546,8.624c-1.751,2.488-5.701,6.63-11.848,12.426
				c-2.123,2.018-4.269,4.108-6.435,6.266c1.599-0.12,3.026-0.281,4.282-0.479c4.927-0.781,7.897-1.307,8.91-1.583
				c1.013-0.277,1.797-0.739,2.355-1.39c0.887-1.062,1.549-2.407,1.987-4.028c0.148-0.519,0.335-0.795,0.561-0.83
				c0.258-0.041,0.41,0.082,0.456,0.37c0.046,0.29-0.296,1.684-1.023,4.176c-0.164,0.422-0.363,1.146-0.596,2.174
				c-0.245,1.16-0.533,2.164-0.861,3.009c-3.018,0.542-4.767,0.854-5.25,0.931C6.778,185.844,1.953,186.541,0,186.718l0.244-1.275
				c0.157-0.884,0.426-1.586,0.805-2.109c0.379-0.521,1.144-1.319,2.295-2.393c3.196-2.949,6.572-6.438,10.127-10.468
				c2.992-3.411,4.896-6.603,5.713-9.571c0.542-1.999,0.683-3.822,0.422-5.465c-0.255-1.609-0.907-2.809-1.957-3.602
				c-1.049-0.791-2.365-1.061-3.941-0.811c-2.383,0.377-4.142,1.785-5.273,4.224c-0.493,1.061-0.696,1.86-0.61,2.405
				c0.035,0.224,0.134,0.323,0.294,0.298l1.401-0.223c0.321-0.052,0.656,0.077,1.002,0.384c0.346,0.311,0.547,0.641,0.603,0.995
				c0.102,0.645-0.058,1.247-0.481,1.81c-0.423,0.563-0.956,0.895-1.6,0.996c-0.612,0.098-1.191-0.058-1.732-0.469
				c-0.544-0.409-0.867-0.936-0.969-1.58c-0.306-1.933,0.319-4.027,1.876-6.288c1.556-2.261,3.929-3.642,7.118-4.147
				c2.64-0.418,4.678-0.164,6.112,0.764C23.141,151.28,24.152,152.87,24.483,154.961z"/>
			<path fill="#CA2234" d="M50.92,153.053c0.623,3.93,0.31,8.104-0.937,12.527c-1.214,4.22-3.02,7.824-5.419,10.812
				c-2.508,3.138-5.161,4.928-7.964,5.371c-2.028,0.322-3.794-0.299-5.294-1.859c-1.502-1.562-2.483-3.793-2.942-6.69
				c-0.816-5.152,0.458-11.181,3.821-18.086c2.916-5.975,6.5-9.299,10.75-9.973c2.062-0.325,3.796,0.209,5.206,1.604
				C49.55,148.153,50.477,150.25,50.92,153.053z M46.773,149.692c-0.449-2.831-1.764-4.072-3.948-3.726
				c-3.179,0.503-5.869,4.621-8.069,12.354c-0.984,3.552-1.688,7.322-2.109,11.311c-0.244,2.413-0.197,4.681,0.139,6.802
				c0.52,3.281,1.952,4.734,4.296,4.363c1.862-0.295,3.375-1.506,4.536-3.635c1.16-2.13,2.341-5.845,3.544-11.146
				C46.806,158.735,47.343,153.294,46.773,149.692z"/>
			<path fill="#CA2234" d="M71.162,140.785c0.031,0.193-0.114,0.848-0.433,1.956c-0.123,0.483-0.241,0.982-0.357,1.497
				l-5.546,28.142c-0.329,1.675-0.482,2.578-0.462,2.707c0.102,0.646,0.682,0.868,1.74,0.667l3.429-0.542
				c0.451-0.072,0.696,0.009,0.732,0.244c0.029,0.184-0.166,0.309-0.584,0.375l-0.483,0.076c-0.226,0.036-0.854,0.136-1.884,0.299
				l-8.502,1.346c-1.449,0.229-2.608,0.414-3.478,0.552c-0.258,0.04-0.532,0.084-0.821,0.13c-0.386,0.062-0.594,0-0.623-0.184
				c-0.038-0.235,0.346-0.416,1.152-0.543c0.032-0.006,0.193-0.03,0.482-0.076c0.29-0.047,0.708-0.112,1.256-0.199l0.773-0.122
				c1.062-0.169,1.789-0.583,2.18-1.239c0.207-0.364,0.45-1.229,0.728-2.596l4.227-21.151c0.832-4.133,1.204-6.474,1.117-7.021
				c-0.097-0.613-0.501-0.863-1.209-0.751c-0.322,0.051-1.155,0.314-2.499,0.791c-0.344,0.121-0.629,0.199-0.854,0.235
				c-0.354,0.057-0.549-0.028-0.585-0.255c-0.035-0.225,0.746-0.612,2.342-1.162c3.128-1.089,5.644-2.199,7.545-3.325
				c0.091-0.046,0.183-0.095,0.274-0.143C71.011,140.462,71.126,140.559,71.162,140.785z"/>
			<path fill="#CA2234" d="M100.515,139.157c0.224,1.418-0.363,2.235-1.763,2.457c-1.145,0.182-1.798-0.242-1.961-1.273
				c-0.051-0.322,0.072-0.82,0.371-1.495c0.116-0.25,0.157-0.487,0.121-0.711c-0.096-0.612-0.821-0.812-2.173-0.599
				c-2.222,0.353-4.135,2.239-5.739,5.663c-0.818,1.716-1.801,4.678-2.951,8.886c1.624-1.214,3.192-1.941,4.706-2.181
				c2.19-0.348,4.029,0.065,5.519,1.233c1.49,1.173,2.423,2.95,2.801,5.34c0.675,4.259-0.305,8.285-2.939,12.077
				c-1.854,2.676-4.167,4.231-6.936,4.67c-2.255,0.357-4.103-0.158-5.544-1.55c-1.831-1.762-2.975-4.091-3.435-6.995
				c-0.418-2.645-0.138-5.87,0.844-9.678c0.981-3.809,2.427-7.285,4.339-10.433c2.824-4.678,6.088-7.311,9.792-7.897
				c1.353-0.214,2.478-0.096,3.374,0.357C99.836,137.48,100.362,138.189,100.515,139.157z M94.78,155.478
				c-0.521-3.293-2.006-4.746-4.453-4.358c-2.352,0.373-3.969,2.25-4.852,5.634c-0.989,3.763-1.177,7.581-0.563,11.455
				c0.501,3.162,2.04,4.54,4.617,4.133c2.253-0.357,3.823-2.327,4.709-5.907C95.162,162.681,95.343,159.028,94.78,155.478z"/>
			<path fill="#CA2234" d="M113.336,155.695l-0.064,2.733l-9.757,1.546l-0.034-2.718L113.336,155.695z"/>
			<path fill="#CA2234" d="M138.436,136.914c0.434,2.739-0.416,5.611-2.547,8.623c-1.75,2.489-5.699,6.631-11.848,12.425
				c-2.123,2.019-4.268,4.109-6.434,6.268c1.598-0.12,3.025-0.281,4.281-0.48c4.928-0.781,7.896-1.308,8.91-1.583
				c1.012-0.276,1.797-0.738,2.354-1.388c0.889-1.065,1.551-2.41,1.988-4.031c0.146-0.519,0.336-0.793,0.561-0.83
				c0.258-0.04,0.408,0.084,0.455,0.373c0.047,0.29-0.295,1.681-1.023,4.174c-0.162,0.421-0.363,1.146-0.594,2.174
				c-0.246,1.161-0.533,2.164-0.863,3.008c-3.016,0.543-4.766,0.854-5.248,0.932c-7.697,1.219-12.523,1.916-14.475,2.093
				l0.242-1.275c0.158-0.883,0.426-1.586,0.805-2.109c0.381-0.521,1.146-1.319,2.297-2.393c3.195-2.95,6.572-6.439,10.127-10.468
				c2.992-3.411,4.896-6.602,5.713-9.571c0.543-1.999,0.682-3.822,0.422-5.465c-0.254-1.609-0.908-2.81-1.957-3.602
				c-1.049-0.791-2.363-1.061-3.941-0.811c-2.383,0.377-4.141,1.784-5.271,4.223c-0.494,1.062-0.697,1.861-0.611,2.406
				c0.035,0.223,0.133,0.322,0.295,0.298l1.402-0.223c0.32-0.052,0.654,0.077,1,0.385c0.348,0.31,0.549,0.64,0.604,0.994
				c0.104,0.645-0.059,1.246-0.48,1.809c-0.424,0.564-0.955,0.896-1.6,0.997c-0.613,0.097-1.191-0.058-1.732-0.47
				c-0.545-0.408-0.867-0.933-0.969-1.579c-0.307-1.933,0.318-4.027,1.877-6.287c1.555-2.262,3.928-3.644,7.117-4.147
				c2.639-0.419,4.678-0.165,6.111,0.765C137.094,133.232,138.105,134.821,138.436,136.914z"/>
			<path fill="#CA2234" d="M164.873,135.006c0.623,3.93,0.309,8.104-0.938,12.527c-1.213,4.219-3.02,7.823-5.418,10.812
				c-2.51,3.137-5.162,4.929-7.965,5.371c-2.029,0.321-3.793-0.299-5.295-1.859c-1.502-1.562-2.482-3.792-2.941-6.69
				c-0.816-5.152,0.459-11.18,3.82-18.085c2.918-5.975,6.5-9.3,10.75-9.974c2.061-0.325,3.797,0.21,5.207,1.604
				C163.502,130.104,164.43,132.203,164.873,135.006z M160.725,131.644c-0.447-2.83-1.764-4.07-3.947-3.725
				c-3.18,0.503-5.869,4.621-8.068,12.354c-0.986,3.55-1.688,7.32-2.109,11.31c-0.244,2.413-0.197,4.68,0.141,6.802
				c0.518,3.281,1.949,4.734,4.293,4.363c1.863-0.295,3.377-1.506,4.537-3.636c1.16-2.129,2.34-5.843,3.545-11.145
				C160.758,140.688,161.295,135.247,160.725,131.644z"/>
			<path fill="#CA2234" d="M185.113,122.738c0.031,0.194-0.113,0.846-0.432,1.956c-0.123,0.482-0.242,0.981-0.357,1.497
				l-5.545,28.142c-0.33,1.674-0.484,2.577-0.463,2.706c0.102,0.646,0.682,0.868,1.738,0.668l3.43-0.543
				c0.451-0.072,0.695,0.009,0.732,0.244c0.029,0.184-0.166,0.308-0.584,0.375l-0.482,0.077c-0.227,0.035-0.855,0.135-1.885,0.298
				l-8.502,1.347c-1.447,0.229-2.609,0.413-3.479,0.55c-0.258,0.042-0.531,0.085-0.82,0.13c-0.387,0.062-0.594,0-0.623-0.183
				c-0.039-0.235,0.346-0.415,1.152-0.544c0.031-0.003,0.191-0.03,0.482-0.075c0.289-0.047,0.707-0.112,1.256-0.199l0.771-0.123
				c1.062-0.167,1.789-0.581,2.182-1.238c0.205-0.363,0.449-1.229,0.729-2.596l4.227-21.15c0.83-4.133,1.203-6.474,1.115-7.021
				c-0.098-0.613-0.5-0.864-1.209-0.752c-0.32,0.051-1.154,0.315-2.498,0.792c-0.344,0.12-0.629,0.198-0.855,0.235
				c-0.354,0.055-0.547-0.029-0.584-0.257c-0.035-0.225,0.746-0.611,2.342-1.161c3.129-1.089,5.643-2.199,7.545-3.325
				c0.09-0.046,0.182-0.095,0.275-0.143C184.963,122.414,185.078,122.512,185.113,122.738z"/>
			<path fill="#CA2234" d="M215.973,118.099c0.064,0.417-1.037,2.738-3.305,6.96c-0.607,1.185-2.281,4.471-5.027,9.857
				c-0.887,1.691-2.164,4.254-3.832,7.688l-2.432,5.29c-0.883,1.92-1.281,3.156-1.195,3.703c0.088,0.548,0.355,0.786,0.807,0.714
				c0.16-0.025,0.387-0.273,0.674-0.75c0.184-0.293,0.486-0.474,0.906-0.539c0.9-0.143,1.445,0.383,1.635,1.573
				c0.111,0.709-0.047,1.327-0.475,1.856c-0.428,0.53-1.045,0.859-1.848,0.987c-0.807,0.127-1.49-0.013-2.049-0.419
				s-0.898-0.98-1.016-1.723c-0.156-0.996,0.117-2.426,0.832-4.289c0.711-1.862,2.182-5.018,4.418-9.466l8.113-15.991l-2.754,0.436
				l-10.338,1.638c-0.402,0.16-0.691,0.637-0.863,1.431c-0.234,1.223-0.465,1.85-0.689,1.886c-0.225,0.035-0.357-0.06-0.393-0.283
				c-0.031-0.194,0.076-1.085,0.318-2.676c0.053-0.504,0.121-1.224,0.203-2.161l0.211-2.114c0.131-1.241,0.393-1.894,0.779-1.955
				c0.225-0.035,0.354,0.048,0.387,0.25c0.053,0.339,0.047,0.719-0.018,1.144c-0.043,0.146-0.061,0.236-0.057,0.269
				c0.031,0.203,0.188,0.307,0.471,0.315c0.281,0.008,1.131-0.102,2.549-0.326l10.096-1.599c0.326-0.019,0.699-0.062,1.117-0.129
				c0.645-0.101,1.256-0.512,1.836-1.229c0.303-0.379,0.52-0.579,0.648-0.6C215.844,117.82,215.941,117.904,215.973,118.099z"/>
		</g>
	</g>
</g>
</svg>
