<?xml version="1.0" encoding="utf-8"?>
<!-- Generator: Adobe Illustrator 19.2.1, SVG Export Plug-In . SVG Version: 6.00 Build 0)  -->
<svg version="1.1" id="Capa_1" xmlns="http://www.w3.org/2000/svg" xmlns:xlink="http://www.w3.org/1999/xlink" x="0px" y="0px"
	 viewBox="0 0 25 50" style="enable-background:new 0 0 25 50;" xml:space="preserve">
<style type="text/css">
	.st0{fill:#333333;}
	.st1{fill:#F6F6F6;}
</style>
<g>
	<path class="st0" d="M16.6,4.4l-2.1,0c-2.4,0-3.9,1.6-3.9,4v1.8H8.4c-0.2,0-0.3,0.1-0.3,0.3v2.7c0,0.2,0.1,0.3,0.3,0.3h2.1v6.7
		c0,0.2,0.1,0.3,0.3,0.3h2.8c0.2,0,0.3-0.1,0.3-0.3v-6.7h2.5c0.2,0,0.3-0.1,0.3-0.3l0-2.7c0-0.1,0-0.2-0.1-0.2
		c-0.1-0.1-0.1-0.1-0.2-0.1H14V8.7c0-0.8,0.2-1.1,1.2-1.1h1.4c0.2,0,0.3-0.1,0.3-0.3V4.7C16.9,4.5,16.7,4.4,16.6,4.4z"/>
</g>
<g>
	<path class="st1" d="M16.6,29.4l-2.1,0c-2.4,0-3.9,1.6-3.9,4v1.8H8.4c-0.2,0-0.3,0.1-0.3,0.3v2.7c0,0.2,0.1,0.3,0.3,0.3h2.1v6.7
		c0,0.2,0.1,0.3,0.3,0.3h2.8c0.2,0,0.3-0.1,0.3-0.3v-6.7h2.5c0.2,0,0.3-0.1,0.3-0.3l0-2.7c0-0.1,0-0.2-0.1-0.2
		c-0.1-0.1-0.1-0.1-0.2-0.1H14v-1.6c0-0.8,0.2-1.1,1.2-1.1h1.4c0.2,0,0.3-0.1,0.3-0.3v-2.5C16.9,29.5,16.7,29.4,16.6,29.4z"/>
</g>
</svg>
