<?xml version="1.0" encoding="utf-8"?>
<!-- Generator: Adobe Illustrator 19.2.1, SVG Export Plug-In . SVG Version: 6.00 Build 0)  -->
<svg version="1.1" id="Layer_1" xmlns="http://www.w3.org/2000/svg" xmlns:xlink="http://www.w3.org/1999/xlink" x="0px" y="0px"
	 viewBox="0 0 39.9 56.6" style="enable-background:new 0 0 39.9 56.6;" xml:space="preserve">
<style type="text/css">
	.st0{fill:#666666;}
	.st1{fill:#EBEBEB;stroke:#666666;stroke-miterlimit:10;}
</style>
<circle class="st0" cx="14.2" cy="7.8" r="6.2"/>
<g>
	<path class="st1" d="M33.8,22.6c-1.4,0-2.5,1.1-2.5,2.5v6c0,0.5-0.4,0.8-0.8,0.8c-0.5,0-0.8-0.4-0.8-0.8v-8.4
		c0-1.4-1.1-2.5-2.5-2.5c-1.4,0-2.5,1.1-2.5,2.5v6.7c0,0.5-0.4,0.8-0.8,0.8c-0.5,0-0.8-0.4-0.8-0.8v-11c0-1.4-1.1-2.5-2.5-2.5
		c-1.4,0-2.5,1.1-2.5,2.5v11c0,0.5-0.4,0.8-0.8,0.8c-0.4,0-0.8-0.4-0.8-0.8V8c0-1.4-1.1-2.5-2.5-2.5c-1.4,0-2.5,1.1-2.5,2.5v29.9
		l-3.3-4.7c-1-1.6-2.9-2.1-4.3-1.2c-1.4,0.9-1.7,2.9-0.8,4.5c0,0,5.3,8.3,7.6,11.9c2.3,3.6,6,6.4,12.9,6.4
		c11.4,0,12.5-9.1,12.5-11.8V25.2C36.3,23.8,35.2,22.6,33.8,22.6z"/>
	<path class="st1" d="M33.8,22.6c-1.4,0-2.5,1.1-2.5,2.5v6c0,0.5-0.4,0.8-0.8,0.8c-0.5,0-0.8-0.4-0.8-0.8v-8.4
		c0-1.4-1.1-2.5-2.5-2.5c-1.4,0-2.5,1.1-2.5,2.5v6.7c0,0.5-0.4,0.8-0.8,0.8c-0.5,0-0.8-0.4-0.8-0.8v-11c0-1.4-1.1-2.5-2.5-2.5
		c-1.4,0-2.5,1.1-2.5,2.5v11c0,0.5-0.4,0.8-0.8,0.8c-0.4,0-0.8-0.4-0.8-0.8V8c0-1.4-1.1-2.5-2.5-2.5c-1.4,0-2.5,1.1-2.5,2.5v29.9
		l-3.3-4.7c-1-1.6-2.9-2.1-4.3-1.2c-1.4,0.9-1.7,2.9-0.8,4.5c0,0,5.3,8.3,7.6,11.9c2.3,3.6,6,6.4,12.9,6.4
		c11.4,0,12.5-9.1,12.5-11.8V25.2C36.3,23.8,35.2,22.6,33.8,22.6z"/>
</g>
</svg>
