<?xml version="1.0" encoding="utf-8"?>
<!-- Generator: Adobe Illustrator 19.2.1, SVG Export Plug-In . SVG Version: 6.00 Build 0)  -->
<svg version="1.1" id="Layer_1" xmlns="http://www.w3.org/2000/svg" xmlns:xlink="http://www.w3.org/1999/xlink" x="0px" y="0px"
	 viewBox="0 0 369 568.5" style="enable-background:new 0 0 369 568.5;" xml:space="preserve">
<style type="text/css">
	.st0{fill:#333333;}
	.st1{fill:#231F20;}
</style>
<g>
	<path class="st0" d="M5.9,562.5v-9.2h0.8c1,0,1.7,0.1,2.2,0.3c0.4,0.2,0.9,0.6,1.4,1.1s1.1,1.2,1.7,2.1l1,1.7l1,1.5l0.6,0.8
		c0.1,0.1,0.2,0.2,0.2,0.3l0.9,1.4h3.7l-1.1-1.5c-0.4-0.6-1.1-1.5-1.8-2.7c-1.2-1.9-2.1-3.2-2.8-4c-0.7-0.8-1.3-1.4-2-1.8
		c1.2-0.4,2.1-1.1,2.7-2c0.6-0.9,0.9-1.9,0.9-3.2c0-1.8-0.6-3.2-1.9-4.3c-1.3-1.1-3-1.6-5.2-1.6H2.8v21.1H5.9L5.9,562.5z
		 M10.1,544.4c0.7,0.2,1.2,0.6,1.5,1.1c0.4,0.5,0.5,1.1,0.5,1.8s-0.2,1.3-0.5,1.8s-0.8,0.9-1.4,1.2c-0.6,0.3-1.7,0.4-3.2,0.4H5.9
		V544h0.9C8.3,544,9.4,544.1,10.1,544.4 M26.3,544.3c-2.2,2.1-3.3,4.7-3.3,7.8s1.1,5.6,3.2,7.7c2.2,2,4.9,3.1,8.1,3.1
		c3.4,0,6.2-1,8.5-3.1c2.2-2,3.4-4.6,3.4-7.7s-1.1-5.7-3.3-7.8c-2.2-2.1-5-3.1-8.3-3.1C31.2,541.2,28.4,542.2,26.3,544.3
		 M40.6,546.3c1.6,1.5,2.4,3.4,2.4,5.6c0,2.3-0.8,4.2-2.4,5.7c-1.6,1.5-3.6,2.3-6,2.3s-4.4-0.8-6-2.3s-2.4-3.4-2.4-5.7
		c0-2.3,0.8-4.3,2.4-5.8s3.6-2.3,6.1-2.3C37,544,39,544.8,40.6,546.3 M64.6,561.7c1.1-0.5,1.9-1.2,2.5-2.1c0.6-0.8,0.8-1.8,0.8-2.9
		c0-1.4-0.5-2.5-1.4-3.5s-2.2-1.6-3.8-1.9c2.2-0.9,3.3-2.4,3.3-4.5c0-1.1-0.3-2-0.8-2.8c-0.5-0.8-1.3-1.5-2.3-1.9
		c-1-0.5-2.4-0.7-4.2-0.7H53v21.1h7.3C62.2,562.5,63.5,562.3,64.6,561.7 M62.9,547.2c0,1-0.4,1.8-1,2.4c-0.7,0.6-1.9,0.9-3.5,0.9
		h-2.1v-6.3H59C61.6,544.1,62.9,545.2,62.9,547.2 M62.6,553.6c0.7,0.3,1.3,0.7,1.6,1.2c0.4,0.5,0.6,1.1,0.6,1.8
		c0,0.6-0.2,1.2-0.5,1.7c-0.4,0.5-0.9,0.9-1.5,1.2c-0.6,0.3-1.7,0.4-3.4,0.4h-3v-6.7h2.9C60.7,553.2,61.8,553.3,62.6,553.6
		 M74.6,562.5h12.5v-2.7h-9.4v-6.5h8.8v-2.7h-8.8v-6.4h9.1v-2.7H74.6V562.5z M96.9,562.5v-9.2h0.8c1,0,1.7,0.1,2.2,0.3
		c0.4,0.2,0.9,0.6,1.4,1.1s1.1,1.2,1.8,2.1l1,1.7l1,1.5l0.6,0.8c0.1,0.1,0.2,0.2,0.2,0.3l0.9,1.4h3.7l-1.1-1.5
		c-0.5-0.6-1.1-1.5-1.8-2.7c-1.2-1.9-2.1-3.2-2.8-4c-0.7-0.8-1.3-1.4-2-1.8c1.2-0.4,2.1-1.1,2.7-2c0.6-0.9,0.9-1.9,0.9-3.2
		c0-1.8-0.6-3.2-1.9-4.3c-1.3-1.1-3-1.6-5.2-1.6h-5.4v21.1H96.9L96.9,562.5z M101.1,544.4c0.7,0.2,1.2,0.6,1.5,1.1
		c0.4,0.5,0.5,1.1,0.5,1.8s-0.2,1.3-0.5,1.8s-0.8,0.9-1.4,1.2s-1.7,0.4-3.2,0.4h-1.2V544h0.9C99.4,544,100.5,544.1,101.1,544.4
		 M112.8,544.1h7.4v18.4h3.1v-18.4h7.5v-2.7h-18V544.1z M131.8,562.5h3.2l2.7-6.2h9.2l2.9,6.2h3.2l-9.7-21.2h-2.2L131.8,562.5z
		 M138.9,553.6l3.2-7.6l3.5,7.6H138.9z M164.3,562.5c1,0,1.7,0,2-0.1c0.4-0.1,0.7-0.2,1.2-0.3c0.7-0.3,1.4-0.7,1.9-1.2
		s0.9-1.1,1.2-1.8c0.3-0.7,0.4-1.4,0.4-2.1c0-1-0.3-2-0.8-2.8c-0.5-0.9-1.2-1.5-2.1-2c-0.9-0.4-2.1-0.7-3.6-0.7h-3.8v10.9
		L164.3,562.5L164.3,562.5z M166.1,553.1c0.3,0.1,0.7,0.2,1.1,0.4c0.4,0.2,0.7,0.4,1,0.7c0.8,0.7,1.2,1.7,1.2,2.9
		c0,1.2-0.4,2.2-1.2,3c-0.2,0.2-0.5,0.4-0.8,0.6s-0.7,0.3-1.1,0.4c-0.4,0.1-1.1,0.2-1.9,0.2h-2.1V553h2
		C165.2,553,165.7,553,166.1,553.1 M175.6,562.5h1.6v-10.9h-1.6V562.5z M195.7,560c-2.5,0-4.6-0.7-6.2-2.2c-1.6-1.5-2.4-3.4-2.4-5.7
		c0-2.3,0.8-4.2,2.4-5.7c1.6-1.5,3.7-2.3,6.2-2.3c2.4,0,4.9,0.7,7.4,2.1V543c-2.8-1.2-5.3-1.7-7.5-1.7c-3.3,0-6.1,1-8.3,3.1
		s-3.4,4.7-3.4,7.7c0,1.9,0.5,3.7,1.5,5.4c1,1.7,2.3,3,4,3.9s3.7,1.4,6.1,1.4c3,0,5.6-0.6,7.9-1.8v-3.3
		C200.9,559.2,198.3,560,195.7,560 M208.3,562.5h3.2l2.7-6.2h9.2l2.9,6.2h3.2l-9.7-21.2h-2.2L208.3,562.5z M215.4,553.6l3.2-7.6
		l3.5,7.6H215.4z M245.1,550.1l-7.2-8.7H235v21.1h3.1v-16.4l6.7,8.2h0.6l6.6-8.2v16.4h3.1v-21.1h-2.9L245.1,550.1z M263.2,562.5
		h12.5v-2.7h-9.4v-6.5h8.8v-2.7h-8.8v-6.4h9.2v-2.7h-12.2v21H263.2z M285.6,562.5v-9.2h0.8c1,0,1.7,0.1,2.2,0.3
		c0.4,0.2,0.9,0.6,1.4,1.1s1.1,1.2,1.8,2.1l1,1.7l0.9,1.5l0.6,0.8c0.1,0.1,0.2,0.2,0.2,0.3l0.9,1.4h3.7L298,561
		c-0.4-0.6-1-1.5-1.8-2.7c-1.2-1.9-2.1-3.2-2.8-4c-0.7-0.8-1.3-1.4-2-1.8c1.2-0.4,2.1-1.1,2.7-2s0.9-1.9,0.9-3.2
		c0-1.8-0.7-3.2-1.9-4.3c-1.3-1.1-3-1.6-5.2-1.6h-5.4v21.1H285.6z M289.8,544.4c0.7,0.2,1.2,0.6,1.5,1.1c0.4,0.5,0.5,1.1,0.5,1.8
		s-0.2,1.3-0.5,1.8s-0.8,0.9-1.4,1.2s-1.7,0.4-3.2,0.4h-1.2V544h0.9C288,544,289.1,544.1,289.8,544.4 M304.8,562.5h3.1v-21.1h-3.1
		V562.5z M333.1,557.8l-14.6-16.4H316v21.1h2.9v-16.2l14.4,16.2h2.7v-21.1h-2.9V557.8z M346.3,544.3c-2.2,2.1-3.3,4.7-3.3,7.8
		s1.1,5.6,3.3,7.7c2.2,2,4.9,3.1,8.1,3.1c3.4,0,6.2-1,8.5-3.1c2.2-2,3.4-4.6,3.4-7.7s-1.1-5.7-3.3-7.8c-2.2-2.1-5-3.1-8.3-3.1
		S348.5,542.2,346.3,544.3 M360.6,546.3c1.6,1.5,2.4,3.4,2.4,5.6c0,2.3-0.8,4.2-2.4,5.7s-3.6,2.3-6,2.3s-4.4-0.8-6-2.3
		s-2.4-3.4-2.4-5.7c0-2.3,0.8-4.3,2.4-5.8s3.6-2.3,6.1-2.3C357,544,359,544.8,360.6,546.3"/>
</g>
<g>
	<circle class="st0" cx="135.4" cy="180.7" r="7.8"/>
	<path class="st0" d="M134.6,149.1c4.3,0,7.8-3.5,7.8-7.8c0-4.3-3.5-7.9-7.8-7.9c-4.3,0-7.8,3.5-7.8,7.9
		C126.7,145.5,130.2,149.1,134.6,149.1z"/>
	<path class="st0" d="M280.6,429.9c-5.7-19.7-6.6-24.1-11.2-39.6c-4.4-14.9-6-21.4-12.7-47.9c-11.3-44.9-36.5-55.3-55-65.2
		c-4.7-2.5-22-10.6-39.2-18.6c0-1.5-0.1-3.8-0.1-6.6c4.7-1.4,122.1-37.5,122.1-137.8c0-54.1-29.3-100.2-87.7-100.2
		c-46.9,0-72.7,31.1-82.4,63.5c-10.5,1.7-19.2,10-19.2,22.9v49.6c0,9.3,6.9,16.9,15.9,18.1c0.4,18.2,0.8,34.9,0.8,42.3
		c0,2.3,0,4.9,0,7.8c-6.1,4-23.6,17.5-23.6,39.5c0,21,10,32,23.2,38.6c0,0.6,0,1.1-0.1,1.7c0,0,0.9,33.2-10.6,74.2
		c-9.9,35.3-31,64.5-33.3,68.6c-2.3,4.1-0.3,4.9,2.6,6.1c2.9,1.2,11.4,3.7,25,9.6c13.6,5.8,23,13.2,23,13.2s40.1-56.9,40.1-154.6
		c0-0.4,0-0.7,0-1.1c7.7,3,15.6,6.2,22.9,9.3c8.7,8.9,24.5,29.7,35.6,71.3c9.6,36.2,6.6,76.2,6.6,76.2s13.8-10.1,31.9-15.5
		c16.6-5,32.5-6,32.5-6S283.9,441.4,280.6,429.9z M109.9,107.7c0,8.7,0.5,28.7,1,49.1c-0.9-0.4-1.8-0.9-2.5-1.6
		c-1.3-1.3-2.1-3.1-2.1-5v-49.6c0-3.6,1.1-6.5,3.2-8.7c0.6-0.6,1.2-1.1,1.9-1.5C110.4,96.2,109.9,102.1,109.9,107.7z M162.1,240.8
		c-0.2-8.4-0.4-18.8-0.7-30.1c9.7-2.8,22.9-7.6,36-15c35.1-19.9,53.1-48.2,52-81.7c-0.8-25.5-10.3-42.9-20.2-54.3
		c22.6,7.6,44.3,28.3,44.3,54.6C273.7,198.9,180,234.8,162.1,240.8z M174.6,150.1v-49.6c0-8.6-3.8-15.1-9.5-19
		c1.8-2.9,4-5.7,6.5-8.3c9.4-9.7,24.1-16.1,38-16.6c10.6,7.7,27.7,25,28.7,57.7c1.7,52-49.4,75.7-77.2,84.7
		c-0.2-10.2-0.5-20.8-0.7-31.1C168.6,166,174.6,158.8,174.6,150.1z M160.3,156.1c-0.5-24.3-1-45.1-1.2-52.3
		c-0.1-4.2,0.4-8.1,1.5-11.9c2,2.1,3.1,5,3.1,8.5v49.6C163.5,152.6,162.2,154.8,160.3,156.1z M146,44.6
		c13.1-13.1,30.2-19.8,50.8-19.8c21.4,0,38.9,6.7,52.2,20c6.7,6.7,12.1,14.9,16.2,24.3c-11.2-9.7-31.3-23.7-53.6-23.7
		c-20.8,0-45.4,11.1-56.7,32.1c-1.1-0.1-2.3-0.2-3.4-0.2h-25.8C129.9,65.6,136.6,54,146,44.6z M122.3,88.4h8.7v10.1
		c-2,1.4-3.4,3.8-3.4,6.4c0,4.3,3.5,7.9,7.8,7.9c4.3,0,7.8-3.5,7.8-7.9c0-2.7-1.3-5-3.4-6.4V88.4h10.7c-1.3,4.9-2,10.2-1.8,15.8
		c0.2,7.6,0.7,29.1,1.1,53.1h-28.6c-0.4-20.4-1.4-40.9-1.4-49.6C119.8,101.8,120.6,95.2,122.3,88.4z M151.4,244v9.5
		c-12.8-5.9-24-11.1-27.8-13c-0.3-0.2-0.6-0.3-0.8-0.5c0-5,0-9.8,0-14.4l0-15.2c0-7.4-0.9-23.8-1.3-42.1h28.6
		C150.8,205.4,151.4,244,151.4,244z M147.5,315.2c0,71.1-22.2,120.1-32.7,139.3c-4.1-2.5-9.3-5.3-15.3-7.9
		c-7.7-3.3-13.8-5.6-18.2-7.2c7.5-11.7,22.1-36.3,30-64.3c10-35.4,11-65.1,11-74.4c6.1,2.2,15.3,5.5,25.5,9.3
		C147.6,311.8,147.5,313.5,147.5,315.2z M123.7,289.8c-17.4-6.1-24.6-15.4-24.6-32.1c0-9.2,4.3-16.7,8.9-22.2
		c0.8,5.5,3.9,11.5,10.6,14.9c4.3,2.1,16.8,7.9,31.2,14.6c18.4,8.5,41.4,19.2,46.5,21.9l4,2.1c17,8.9,36.2,19,45.5,56l1.3,5.3
		c0.1,0.3,0.2,0.6,0.2,0.9c-12.3-12.5-26.6-21.1-43.8-29.6C177.8,309,132.5,292.9,123.7,289.8z M252.2,444.8
		c-6.3,1.9-12.1,4.3-17.2,6.7c-0.2-15.6-1.7-38.1-7.4-59.6c-6.1-23-14.4-42.6-24.5-58.4c22.2,11.3,37.7,22.8,50.9,43.2
		c1.5,5.5,2.8,10.4,4.7,16.8c2.4,8.1,3.8,13.1,5.4,18.9l5.8,20.7c0.8,2.6,1.5,5,2.3,7.2C266.4,441.2,259.3,442.6,252.2,444.8z"/>
</g>
<path class="st1" d="M304.7,426.4c4.6,0,8.4,3.6,8.4,8.3c0,4.8-3.8,8.4-8.4,8.4c-4.6,0-8.4-3.6-8.4-8.4
	C296.3,430,300.1,426.4,304.7,426.4z M304.7,441.9c3.9,0,6.9-3.1,6.9-7.2c0-4-3-7.1-6.9-7.1c-3.9,0-6.9,3.1-6.9,7.1
	C297.8,438.8,300.8,441.9,304.7,441.9z M301.4,429.9h3.8c2.3,0,3.4,0.9,3.4,2.8c0,1.8-1.1,2.5-2.6,2.7l2.8,4.3h-1.6l-2.7-4.2h-1.6
	v4.2h-1.5V429.9z M302.9,434.2h1.6c1.3,0,2.6-0.1,2.6-1.6c0-1.3-1.1-1.5-2.1-1.5h-2V434.2z"/>
</svg>
