<?xml version="1.0" encoding="utf-8"?>
<!-- Generator: Adobe Illustrator 16.0.0, SVG Export Plug-In . SVG Version: 6.00 Build 0)  -->
<!DOCTYPE svg PUBLIC "-//W3C//DTD SVG 1.1//EN" "http://www.w3.org/Graphics/SVG/1.1/DTD/svg11.dtd">
<svg version="1.1" id="Layer_1" xmlns="http://www.w3.org/2000/svg" xmlns:xlink="http://www.w3.org/1999/xlink" x="0px" y="0px"
	 width="320px" height="50px" viewBox="0 0 320 50" enable-background="new 0 0 320 50" xml:space="preserve">
<g id="Layer_2">
	<rect x="0" fill="#CB2434" width="267" height="50"/>
	<rect x="267" fill="#203356" width="53" height="50"/>
</g>
<g id="Layer_3">
	<path fill="#FFFFFF" d="M17.228,32.107v-6.168h0.522c0.659,0,1.125,0.082,1.403,0.232c0.279,0.145,0.59,0.396,0.935,0.738
		c0.345,0.346,0.726,0.812,1.139,1.391l0.671,1.111l0.622,1.033L22.913,31c0.061,0.082,0.1,0.143,0.119,0.178l0.612,0.93h2.391
		l-0.743-1.012c-0.293-0.406-0.687-1.01-1.176-1.818c-0.774-1.278-1.378-2.176-1.807-2.688c-0.429-0.52-0.866-0.92-1.315-1.22
		c0.764-0.299,1.35-0.75,1.756-1.355c0.41-0.594,0.61-1.311,0.61-2.137c0-1.207-0.412-2.173-1.245-2.882
		c-0.833-0.712-1.963-1.064-3.382-1.064H15.22v14.175H17.228L17.228,32.107z M19.944,19.877c0.426,0.148,0.756,0.401,0.99,0.766
		c0.232,0.364,0.352,0.767,0.352,1.218c0,0.448-0.105,0.855-0.317,1.207c-0.209,0.36-0.504,0.624-0.884,0.801
		c-0.377,0.177-1.074,0.261-2.093,0.261h-0.764v-4.475h0.603C18.814,19.655,19.518,19.732,19.944,19.877 M30.476,19.808
		c-1.419,1.387-2.129,3.142-2.129,5.259c0,2.062,0.703,3.777,2.112,5.15c1.408,1.375,3.17,2.055,5.284,2.055
		c2.214,0,4.049-0.68,5.505-2.055c1.454-1.373,2.182-3.104,2.182-5.192c0-2.092-0.723-3.83-2.163-5.217
		c-1.439-1.386-3.246-2.08-5.413-2.08C33.686,17.728,31.894,18.422,30.476,19.808 M39.79,21.195c1.048,1.022,1.57,2.286,1.57,3.792
		c0,1.537-0.522,2.832-1.57,3.865c-1.045,1.035-2.353,1.554-3.917,1.554c-1.56,0-2.855-0.511-3.894-1.521
		c-1.034-1.016-1.555-2.286-1.555-3.816c0-1.578,0.519-2.873,1.551-3.892c1.033-1.011,2.351-1.521,3.959-1.521
		C37.457,19.655,38.745,20.168,39.79,21.195 M55.425,31.572c0.714-0.359,1.255-0.824,1.622-1.391
		c0.368-0.568,0.551-1.216,0.551-1.939c0-0.914-0.302-1.699-0.907-2.355c-0.605-0.655-1.419-1.084-2.445-1.276
		c1.427-0.604,2.142-1.604,2.142-2.995c0-0.724-0.173-1.362-0.514-1.915c-0.339-0.552-0.837-0.983-1.485-1.299
		c-0.65-0.312-1.555-0.471-2.715-0.471h-3.674v14.176h4.752C53.822,32.107,54.712,31.932,55.425,31.572 M54.306,21.777
		c0,0.655-0.228,1.191-0.678,1.606c-0.451,0.408-1.214,0.62-2.284,0.62h-1.336v-4.269h1.729
		C53.449,19.735,54.306,20.418,54.306,21.777 M54.075,26.066c0.463,0.182,0.818,0.449,1.067,0.805
		c0.253,0.361,0.375,0.76,0.375,1.188c0,0.422-0.114,0.812-0.352,1.176c-0.237,0.367-0.556,0.638-0.944,0.806
		c-0.392,0.178-1.137,0.265-2.237,0.265h-1.977v-4.496h1.879C52.881,25.807,53.613,25.895,54.075,26.066 M61.876,32.09h8.143v-1.809
		h-6.134v-4.405h5.743v-1.813h-5.743v-4.328h5.944v-1.804h-7.953V32.09z M76.422,32.107v-6.168h0.522
		c0.655,0,1.124,0.082,1.401,0.232c0.278,0.145,0.591,0.396,0.935,0.738c0.348,0.346,0.728,0.812,1.141,1.391l0.672,1.111
		l0.623,1.033L82.104,31c0.062,0.082,0.103,0.143,0.121,0.178l0.613,0.93h2.39l-0.743-1.012c-0.295-0.406-0.688-1.01-1.174-1.818
		c-0.777-1.278-1.381-2.176-1.808-2.688c-0.431-0.52-0.867-0.92-1.315-1.22c0.763-0.299,1.349-0.75,1.758-1.355
		c0.405-0.594,0.61-1.311,0.61-2.137c0-1.207-0.415-2.173-1.25-2.882c-0.834-0.712-1.959-1.064-3.378-1.064h-3.516v14.175H76.422
		L76.422,32.107z M79.138,19.877c0.427,0.148,0.757,0.401,0.988,0.766c0.235,0.364,0.353,0.767,0.353,1.218
		c0,0.448-0.105,0.855-0.316,1.207c-0.211,0.36-0.505,0.624-0.883,0.801c-0.38,0.177-1.078,0.261-2.096,0.261h-0.762v-4.475h0.601
		C78.008,19.655,78.715,19.732,79.138,19.877 M86.74,19.717h4.812v12.391h2.016V19.717h4.893v-1.81H86.74V19.717z M99.078,32.107
		h2.06l1.755-4.201h5.991l1.865,4.201h2.057l-6.29-14.256h-1.413L99.078,32.107z M103.69,26.102l2.099-5.135l2.268,5.135H103.69z
		 M120.226,32.1c0.647,0,1.084-0.014,1.314-0.051c0.229-0.037,0.481-0.109,0.758-0.221c0.467-0.18,0.882-0.443,1.234-0.793
		c0.345-0.346,0.611-0.734,0.804-1.188c0.184-0.447,0.279-0.921,0.279-1.41c0-0.689-0.172-1.324-0.51-1.906
		c-0.344-0.583-0.804-1.023-1.379-1.327c-0.574-0.298-1.363-0.446-2.352-0.446h-2.455V32.1H120.226z M121.356,25.753
		c0.227,0.038,0.468,0.118,0.718,0.237c0.252,0.119,0.478,0.271,0.67,0.46c0.527,0.491,0.797,1.141,0.797,1.93
		c0,0.802-0.262,1.468-0.775,1.992c-0.161,0.155-0.336,0.299-0.528,0.408c-0.19,0.112-0.437,0.204-0.724,0.272
		s-0.693,0.111-1.214,0.111h-1.333v-5.471h1.302C120.766,25.695,121.13,25.715,121.356,25.753 M127.55,32.107h1.042v-7.351h-1.042
		V32.107z M140.631,30.404c-1.628,0-2.965-0.502-4.006-1.502c-1.043-1.004-1.567-2.279-1.567-3.835c0-1.543,0.532-2.83,1.59-3.855
		c1.065-1.024,2.397-1.537,4.008-1.537c1.562,0,3.164,0.475,4.803,1.424v-2.183c-1.799-0.778-3.432-1.168-4.906-1.168
		c-2.138,0-3.934,0.701-5.39,2.114c-1.455,1.401-2.184,3.142-2.184,5.205c0,1.298,0.318,2.501,0.953,3.625
		c0.638,1.113,1.498,1.988,2.595,2.627c1.088,0.638,2.421,0.953,3.982,0.953c1.933,0,3.633-0.403,5.104-1.217V28.82
		C143.994,29.875,142.332,30.404,140.631,30.404 M148.813,32.107h2.062l1.755-4.201h5.982l1.869,4.201h2.058l-6.29-14.256h-1.414
		L148.813,32.107z M153.426,26.102l2.099-5.135l2.26,5.135H153.426z M172.728,23.754l-4.66-5.823h-1.9v14.176h2.006V21.076
		l4.367,5.48h0.369l4.312-5.48v11.031h2.021V17.931h-1.875L172.728,23.754z M184.49,32.09h8.147v-1.809h-6.141v-4.405h5.746v-1.813
		h-5.746v-4.328h5.949v-1.804h-7.958V32.09H184.49z M199.039,32.107v-6.168h0.521c0.657,0,1.12,0.082,1.401,0.232
		c0.279,0.145,0.594,0.396,0.935,0.738c0.346,0.346,0.729,0.812,1.143,1.391l0.674,1.111l0.619,1.033L204.723,31
		c0.062,0.082,0.102,0.143,0.119,0.178l0.613,0.93h2.395l-0.752-1.012c-0.291-0.406-0.68-1.01-1.17-1.818
		c-0.774-1.278-1.381-2.176-1.811-2.688c-0.428-0.52-0.865-0.92-1.31-1.22c0.759-0.299,1.35-0.75,1.755-1.355
		c0.405-0.594,0.612-1.311,0.612-2.137c0-1.207-0.422-2.173-1.256-2.882c-0.828-0.712-1.955-1.064-3.379-1.064h-3.509v14.175
		H199.039L199.039,32.107z M201.756,19.877c0.424,0.148,0.754,0.401,0.988,0.766c0.232,0.364,0.348,0.767,0.348,1.218
		c0,0.448-0.106,0.855-0.313,1.207c-0.211,0.36-0.506,0.624-0.881,0.801c-0.379,0.177-1.08,0.261-2.097,0.261h-0.762v-4.475h0.602
		C200.625,19.655,201.33,19.732,201.756,19.877 M211.512,32.107h2.007V17.931h-2.007V32.107z M229.928,28.939l-9.461-11.008h-1.629
		v14.176h1.89V21.191l9.377,10.917h1.731V17.931h-1.908V28.939z M238.487,19.808c-1.418,1.387-2.131,3.142-2.131,5.259
		c0,2.062,0.705,3.777,2.114,5.15c1.408,1.375,3.173,2.055,5.285,2.055c2.215,0,4.053-0.68,5.502-2.055
		c1.455-1.373,2.185-3.104,2.185-5.192c0-2.092-0.722-3.83-2.162-5.217c-1.447-1.386-3.246-2.08-5.416-2.08
		C241.696,17.728,239.903,18.422,238.487,19.808 M247.803,21.195c1.05,1.022,1.572,2.286,1.572,3.792
		c0,1.537-0.522,2.832-1.572,3.865c-1.051,1.035-2.353,1.554-3.916,1.554c-1.555,0-2.856-0.511-3.895-1.521
		c-1.031-1.016-1.553-2.286-1.553-3.816c0-1.578,0.518-2.873,1.549-3.892c1.033-1.011,2.352-1.521,3.955-1.521
		C245.469,19.655,246.752,20.168,247.803,21.195"/>
	<path fill="#FFFFFF" d="M276.479,31.464l-1.762-4.2h-0.848l2.527,6.014h0.192l2.479-6.014h-0.836L276.479,31.464z M280.358,33.236
		h3.405v-0.76h-2.566v-1.858h2.402v-0.771h-2.402v-1.822h2.482v-0.764h-3.321V33.236L280.358,33.236z M290,31.909l-3.957-4.646
		h-0.679v5.986h0.789v-4.611l3.923,4.611h0.721v-5.986H290V31.909z M292.75,33.236h3.404v-0.76h-2.562v-1.858h2.396v-0.771h-2.396
		v-1.822h2.482v-0.764h-3.325V33.236L292.75,33.236z M297.538,28.014h3.51l-3.75,5.236h5.294v-0.764h-3.748l3.748-5.235h-5.054
		V28.014L297.538,28.014z M303.967,33.25h0.842v-5.986h-0.842V33.25z M306.104,33.25h0.862l0.73-1.771h2.506l0.78,1.771h0.858
		l-2.628-6.025h-0.595L306.104,33.25z M308.03,30.709l0.877-2.172l0.95,2.172H308.03z"/>
</g>
</svg>
