<?xml version="1.0" encoding="utf-8"?>
<!-- Generator: Adobe Illustrator 19.2.1, SVG Export Plug-In . SVG Version: 6.00 Build 0)  -->
<svg version="1.1" id="Capa_1" xmlns="http://www.w3.org/2000/svg" xmlns:xlink="http://www.w3.org/1999/xlink" x="0px" y="0px"
	 viewBox="0 0 25 50" style="enable-background:new 0 0 25 50;" xml:space="preserve">
<style type="text/css">
	.st0{fill:#333333;}
	.st1{fill:#F6F6F6;}
</style>
<g>
	<g>
		<path class="st0" d="M21.3,7.1c-0.6,0.3-1.3,0.5-2.1,0.6c0.7-0.4,1.3-1.1,1.6-2c-0.7,0.4-1.5,0.7-2.3,0.9
			c-0.7-0.7-1.6-1.1-2.6-1.1c-2,0-3.6,1.6-3.6,3.6c0,0.3,0,0.6,0.1,0.8C9.4,9.6,6.7,8.2,5,6C4.6,6.6,4.5,7.2,4.5,7.8
			c0,1.2,0.6,2.3,1.6,3c-0.6,0-1.1-0.2-1.6-0.5v0c0,1.7,1.2,3.2,2.9,3.5C7,14,6.7,14.1,6.4,14.1c-0.2,0-0.5,0-0.7-0.1
			c0.5,1.4,1.8,2.5,3.4,2.5c-1.2,1-2.8,1.5-4.5,1.5c-0.3,0-0.6,0-0.9,0c1.6,1,3.5,1.6,5.5,1.6c6.6,0,10.2-5.5,10.2-10.2l0-0.5
			C20.2,8.4,20.8,7.8,21.3,7.1z"/>
	</g>
</g>
<g>
	<g>
		<path class="st1" d="M21.3,32.1c-0.6,0.3-1.3,0.5-2.1,0.6c0.7-0.4,1.3-1.1,1.6-2c-0.7,0.4-1.5,0.7-2.3,0.9
			c-0.7-0.7-1.6-1.1-2.6-1.1c-2,0-3.6,1.6-3.6,3.6c0,0.3,0,0.6,0.1,0.8c-3-0.1-5.6-1.6-7.4-3.8c-0.3,0.5-0.5,1.1-0.5,1.8
			c0,1.2,0.6,2.4,1.6,3c-0.6,0-1.1-0.2-1.6-0.5v0c0,1.7,1.2,3.2,2.9,3.5C7,39,6.7,39.1,6.4,39.1c-0.2,0-0.5,0-0.7-0.1
			c0.5,1.4,1.8,2.5,3.4,2.5c-1.2,1-2.8,1.5-4.5,1.5c-0.3,0-0.6,0-0.9,0c1.6,1,3.5,1.6,5.5,1.6c6.6,0,10.2-5.5,10.2-10.2l0-0.5
			C20.2,33.4,20.8,32.8,21.3,32.1z"/>
	</g>
</g>
</svg>
