<?xml version="1.0" encoding="utf-8"?>
<!-- Generator: Adobe Illustrator 19.2.1, SVG Export Plug-In . SVG Version: 6.00 Build 0)  -->
<svg version="1.1" id="Layer_1" xmlns="http://www.w3.org/2000/svg" xmlns:xlink="http://www.w3.org/1999/xlink" x="0px" y="0px"
	 viewBox="0 0 45 45" style="enable-background:new 0 0 45 45;" xml:space="preserve">
<style type="text/css">
	.st0{fill:none;stroke:#333333;stroke-linecap:round;stroke-linejoin:round;}
</style>
<path class="st0" d="M18.3,2.9c0,3.5-4.2,6.4-9.4,6.4c-0.7,0-1.4-0.1-2-0.2v5.8c4.2,0.7,7.2,3.2,7.2,6.2c0,4.4-3,8.3-7.2,9.3v9
	c4.6-4.6,10.8-5.8,13.9-2.6c1.3,1.3,1.9,3.1,1.7,5.3c-0.2-2.1,0.4-4,1.7-5.3c3.1-3.1,9.3-1.9,13.9,2.6v-9c-4.2-1-7.2-4.9-7.2-9.3
	c0-3,3-5.5,7.2-6.2V9.2c-0.7,0.1-1.4,0.2-2,0.2c-5.2,0-9.4-2.8-9.4-6.4L18.3,2.9L18.3,2.9z"/>
<polygon class="st0" points="16.1,16.6 22.5,8.5 28.9,16.6 22.5,24.6 "/>
</svg>
