<?xml version="1.0" encoding="utf-8"?>
<!-- Generator: Adobe Illustrator 19.2.1, SVG Export Plug-In . SVG Version: 6.00 Build 0)  -->
<svg version="1.1" id="Layer_1" xmlns="http://www.w3.org/2000/svg" xmlns:xlink="http://www.w3.org/1999/xlink" x="0px" y="0px"
	 viewBox="0 0 45 45" style="enable-background:new 0 0 45 45;" xml:space="preserve">
<style type="text/css">
	.st0{fill:none;stroke:#333333;stroke-linecap:round;}
</style>
<g id="_141358024">
	<line id="_141244656" class="st0" x1="4.6" y1="7.7" x2="10.8" y2="7.7"/>
	<line id="_141244176" class="st0" x1="12.7" y1="10.8" x2="12.7" y2="4.6"/>
	<line id="_141243696" class="st0" x1="15.8" y1="12.7" x2="9.6" y2="12.7"/>
	<line id="_141243216" class="st0" x1="7.7" y1="9.6" x2="7.7" y2="15.8"/>
	<line id="_141242736" class="st0" x1="17.7" y1="15.8" x2="17.7" y2="9.6"/>
	<line id="_141242256" class="st0" x1="20.8" y1="17.7" x2="14.6" y2="17.7"/>
	<line id="_141241776" class="st0" x1="12.7" y1="14.6" x2="12.7" y2="20.8"/>
	<line id="_141241160" class="st0" x1="22.8" y1="20.8" x2="22.8" y2="14.6"/>
	<line id="_141240680" class="st0" x1="25.8" y1="22.8" x2="19.7" y2="22.8"/>
	<line id="_141240200" class="st0" x1="17.7" y1="19.7" x2="17.7" y2="25.8"/>
	<line id="_141239720" class="st0" x1="27.8" y1="25.8" x2="27.8" y2="19.7"/>
	<line id="_141239240" class="st0" x1="30.9" y1="27.8" x2="24.7" y2="27.8"/>
	<line id="_141238760" class="st0" x1="22.8" y1="24.7" x2="22.8" y2="30.9"/>
	<line id="_141238280" class="st0" x1="32.8" y1="30.9" x2="32.8" y2="24.7"/>
	<line id="_141229600" class="st0" x1="35.9" y1="32.8" x2="29.7" y2="32.8"/>
	<line id="_141229120" class="st0" x1="27.8" y1="29.7" x2="27.8" y2="35.9"/>
	<line id="_141228640" class="st0" x1="37.8" y1="35.9" x2="37.8" y2="29.7"/>
	<line id="_141228024" class="st0" x1="40.9" y1="37.8" x2="34.7" y2="37.8"/>
	<line id="_141227544" class="st0" x1="32.8" y1="34.7" x2="32.8" y2="40.9"/>
	<line id="_141227064" class="st0" x1="4.6" y1="17.7" x2="10.8" y2="17.7"/>
	<line id="_141226584" class="st0" x1="15.8" y1="22.8" x2="9.6" y2="22.8"/>
	<line id="_141226104" class="st0" x1="7.7" y1="19.7" x2="7.7" y2="25.8"/>
	<line id="_141225624" class="st0" x1="20.8" y1="27.8" x2="14.6" y2="27.8"/>
	<line id="_141225144" class="st0" x1="12.7" y1="24.7" x2="12.7" y2="30.9"/>
	<line id="_141224664" class="st0" x1="25.8" y1="32.8" x2="19.7" y2="32.8"/>
	<line id="_141224184" class="st0" x1="17.7" y1="29.7" x2="17.7" y2="35.9"/>
	<line id="_141223704" class="st0" x1="30.9" y1="37.8" x2="24.7" y2="37.8"/>
	<line id="_141223088" class="st0" x1="22.8" y1="34.7" x2="22.8" y2="40.9"/>
	<line id="_141222608" class="st0" x1="4.6" y1="27.8" x2="10.8" y2="27.8"/>
	<line id="_141222128" class="st0" x1="15.8" y1="32.8" x2="9.6" y2="32.8"/>
	<line id="_141221648" class="st0" x1="7.7" y1="29.7" x2="7.7" y2="35.9"/>
	<line id="_141221168" class="st0" x1="20.8" y1="37.8" x2="14.6" y2="37.8"/>
	<line id="_141220688" class="st0" x1="12.7" y1="34.7" x2="12.7" y2="40.9"/>
	<line id="_141220208" class="st0" x1="4.6" y1="37.8" x2="10.8" y2="37.8"/>
	<line id="_141219248" class="st0" x1="34.7" y1="27.8" x2="40.9" y2="27.8"/>
	<line id="_141218152" class="st0" x1="29.7" y1="22.8" x2="35.9" y2="22.8"/>
	<line id="_141217672" class="st0" x1="37.8" y1="25.8" x2="37.8" y2="19.7"/>
	<line id="_22137376" class="st0" x1="24.7" y1="17.7" x2="30.9" y2="17.7"/>
	<line id="_22136896" class="st0" x1="32.8" y1="20.8" x2="32.8" y2="14.6"/>
	<line id="_22135936" class="st0" x1="19.7" y1="12.7" x2="25.8" y2="12.7"/>
	<line id="_22135456" class="st0" x1="27.8" y1="15.8" x2="27.8" y2="9.6"/>
	<line id="_22134496" class="st0" x1="14.6" y1="7.7" x2="20.8" y2="7.7"/>
	<line id="_22133880" class="st0" x1="22.8" y1="10.8" x2="22.8" y2="4.6"/>
	<line id="_141212272" class="st0" x1="34.7" y1="17.7" x2="40.9" y2="17.7"/>
	<line id="_141211792" class="st0" x1="29.7" y1="12.7" x2="35.9" y2="12.7"/>
	<line id="_141211312" class="st0" x1="37.8" y1="15.8" x2="37.8" y2="9.6"/>
	<line id="_141210832" class="st0" x1="24.7" y1="7.7" x2="30.9" y2="7.7"/>
	<line id="_141210352" class="st0" x1="32.8" y1="10.8" x2="32.8" y2="4.6"/>
	<line id="_141209872" class="st0" x1="34.7" y1="7.7" x2="40.9" y2="7.7"/>
	<line id="_141209392" class="st0" x1="7.7" y1="39.7" x2="7.7" y2="40.9"/>
	<line id="_141208912" class="st0" x1="17.7" y1="39.7" x2="17.7" y2="40.9"/>
	<line id="_141208296" class="st0" x1="27.8" y1="39.7" x2="27.8" y2="40.9"/>
	<line id="_141207816" class="st0" x1="37.8" y1="39.7" x2="37.8" y2="40.9"/>
	<line id="_141207336" class="st0" x1="39.7" y1="32.8" x2="40.9" y2="32.8"/>
	<line id="_141206856" class="st0" x1="7.7" y1="5.8" x2="7.7" y2="4.6"/>
	<line id="_141206376" class="st0" x1="17.7" y1="5.8" x2="17.7" y2="4.6"/>
	<line id="_141205896" class="st0" x1="27.8" y1="5.8" x2="27.8" y2="4.6"/>
	<line id="_141205416" class="st0" x1="37.8" y1="5.8" x2="37.8" y2="4.6"/>
	<line id="_141204936" class="st0" x1="5.8" y1="12.7" x2="4.6" y2="12.7"/>
	<line id="_141204456" class="st0" x1="5.8" y1="22.8" x2="4.6" y2="22.8"/>
	<line id="_141203976" class="st0" x1="5.8" y1="32.8" x2="4.6" y2="32.8"/>
	<line id="_141203528" class="st0" x1="39.7" y1="12.7" x2="40.9" y2="12.7"/>
	<line id="_141203064" class="st0" x1="39.7" y1="22.8" x2="40.9" y2="22.8"/>
</g>
</svg>
