<?xml version="1.0" encoding="utf-8"?>
<!-- Generator: Adobe Illustrator 19.2.1, SVG Export Plug-In . SVG Version: 6.00 Build 0)  -->
<svg version="1.1" id="Layer_1" xmlns="http://www.w3.org/2000/svg" xmlns:xlink="http://www.w3.org/1999/xlink" x="0px" y="0px"
	 viewBox="0 0 45 45" style="enable-background:new 0 0 45 45;" xml:space="preserve">
<style type="text/css">
	.st0{fill:#333333;}
</style>
<g id="_141245136">
	<path id="_141253720" class="st0" d="M34.6,13.6C31.4,7.7,24.2,5.3,18,8c-6.1,2.7-9.1,9.7-6.9,16.1C9.7,17.9,12.8,11.6,18.5,9
		C24.2,6.5,30.9,8.4,34.6,13.6L34.6,13.6z"/>
	<path id="_141253088" class="st0" d="M35.5,15.6C32.3,9.7,25,7.3,18.9,10c-6.1,2.7-9.1,9.7-6.9,16.1c-1.4-6.2,1.6-12.5,7.3-15.1
		C25.1,8.5,31.8,10.4,35.5,15.6L35.5,15.6z"/>
	<path id="_141252320" class="st0" d="M33.7,11.6c-3.2-5.9-10.4-8.3-16.5-5.6S8,15.8,10.3,22.1c-1.4-6.2,1.6-12.5,7.3-15.1
		C23.3,4.5,30,6.4,33.7,11.6L33.7,11.6z"/>
	<path id="_141251688" class="st0" d="M36.4,17.6c-3.2-5.9-10.4-8.3-16.5-5.6c-6.1,2.7-9.1,9.7-6.9,16.1c-1.4-6.2,1.6-12.5,7.3-15.1
		C25.9,10.5,32.7,12.4,36.4,17.6L36.4,17.6z"/>
	<path id="_141251056" class="st0" d="M37.2,19.6C34,13.7,26.8,11.3,20.7,14c-6.1,2.7-9.1,9.7-6.9,16.1c-1.4-6.2,1.6-12.5,7.3-15.1
		C26.8,12.5,33.6,14.4,37.2,19.6L37.2,19.6z"/>
	<path id="_141250424" class="st0" d="M7.4,18.7c-3.5,5.7-2,13.2,3.4,17.1c5.4,3.9,13,3,17.3-2.1c-4.7,4.4-11.6,4.9-16.7,1.2
		C6.4,31.3,4.7,24.5,7.4,18.7L7.4,18.7z"/>
	<path id="_141249792" class="st0" d="M8.6,16.9c-3.5,5.7-2,13.2,3.4,17.1c5.4,3.9,13,3,17.3-2.1c-4.7,4.4-11.6,4.9-16.7,1.2
		C7.7,29.5,6,22.7,8.6,16.9L8.6,16.9z"/>
	<path id="_141249160" class="st0" d="M6.1,20.5c-3.5,5.7-2,13.2,3.4,17.1c5.4,3.9,13,3,17.3-2.1c-4.7,4.4-11.6,4.9-16.7,1.2
		C5.1,33,3.4,26.2,6.1,20.5L6.1,20.5z"/>
	<path id="_141248528" class="st0" d="M9.9,15.2c-3.5,5.7-2,13.2,3.4,17.1c5.4,3.9,13,3,17.3-2.1C26,34.6,19,35.1,14,31.4
		C8.9,27.8,7.2,21,9.9,15.2L9.9,15.2z"/>
	<path id="_141247896" class="st0" d="M11.2,13.4c-3.5,5.7-2,13.2,3.4,17.1c5.4,3.9,13,3,17.3-2.1c-4.7,4.4-11.6,4.9-16.7,1.2
		C10.2,26,8.5,19.2,11.2,13.4L11.2,13.4z"/>
	<path id="_141247264" class="st0" d="M25.5,39.8C32.2,40,37.9,35,38.6,28.3s-3.9-12.8-10.5-14c6.1,1.9,10,7.7,9.4,13.9
		C36.8,34.4,31.8,39.3,25.5,39.8L25.5,39.8z"/>
	<path id="_141246632" class="st0" d="M23.3,39.6c6.7,0.2,12.4-4.9,13.1-11.5s-3.9-12.8-10.5-14C32,16,36,21.8,35.3,28
		C34.7,34.2,29.6,39,23.3,39.6L23.3,39.6z"/>
	<path id="_141246136" class="st0" d="M27.6,40.1c6.7,0.2,12.4-4.9,13.1-11.5c0.7-6.7-3.9-12.8-10.5-14c6.1,1.9,10,7.7,9.4,13.9
		C39,34.6,34,39.5,27.6,40.1L27.6,40.1z"/>
	<path id="_141245776" class="st0" d="M21.1,39.4c6.7,0.2,12.4-4.9,13.1-11.5c0.7-6.7-3.9-12.8-10.5-14c6.1,1.9,10,7.7,9.4,13.9
		C32.5,33.9,27.5,38.8,21.1,39.4L21.1,39.4z"/>
	<path id="_141245416" class="st0" d="M19,39.2c6.7,0.2,12.4-4.9,13.1-11.5c0.7-6.7-3.9-12.8-10.5-14c6.1,1.9,10,7.7,9.4,13.9
		C30.3,33.7,25.3,38.6,19,39.2L19,39.2z"/>
</g>
</svg>
